SplineFontDB: 3.0
FontName: Spinnaker-Regular
FullName: Spinnaker
FamilyName: Spinnaker
Weight: Book
Copyright: Copyright (c) 2011, Sorkin Type Co (www.sorkintype.com) with Reserved Font Name "Spinnaker".
Version: 1.002
ItalicAngle: 0
UnderlinePosition: -103
UnderlineWidth: 102
Ascent: 1638
Descent: 410
sfntRevision: 0x00010041
LayerCount: 2
Layer: 0 1 "Back"  1
Layer: 1 1 "Fore"  0
XUID: [1021 288 713564382 3478273]
FSType: 0
OS2Version: 3
OS2_WeightWidthSlopeOnly: 0
OS2_UseTypoMetrics: 1
CreationTime: 1323252480
ModificationTime: 1323804484
PfmFamily: 17
TTFWeight: 400
TTFWidth: 5
LineGap: 0
VLineGap: 0
Panose: 2 11 5 5 3 3 0 0 0 4
OS2TypoAscent: 282
OS2TypoAOffset: 1
OS2TypoDescent: -77
OS2TypoDOffset: 1
OS2TypoLinegap: 0
OS2WinAscent: 0
OS2WinAOffset: 1
OS2WinDescent: 0
OS2WinDOffset: 1
HheadAscent: 0
HheadAOffset: 1
HheadDescent: 0
HheadDOffset: 1
OS2SubXSize: 1434
OS2SubYSize: 1331
OS2SubXOff: 0
OS2SubYOff: 287
OS2SupXSize: 1434
OS2SupYSize: 1331
OS2SupXOff: 0
OS2SupYOff: 977
OS2StrikeYSize: 102
OS2StrikeYPos: 512
OS2Vendor: 'STC '
OS2CodePages: 00000001.00000000
OS2UnicodeRanges: a00000af.40000042.00000000.00000000
Lookup: 4 0 1 "'liga' Standard Ligatures in Latin lookup 0"  {"'liga' Standard Ligatures in Latin lookup 0 subtable"  } ['liga' ('latn' <'dflt' > ) ]
Lookup: 257 0 0 "'cpsp' Capital Spacing in Latin lookup 0"  {"'cpsp' Capital Spacing in Latin lookup 0 subtable"  } ['cpsp' ('latn' <'dflt' > ) ]
DEI: 91125
TtTable: prep
PUSHW_1
 511
SCANCTRL
PUSHB_1
 4
SVTCA[y-axis]
EndTTInstrs
TtTable: fpgm
PUSHB_1
 0
FDEF
MPPEM
PUSHB_1
 9
LT
IF
PUSHB_2
 1
 1
INSTCTRL
EIF
PUSHW_1
 511
SCANCTRL
PUSHB_1
 68
SCVTCI
PUSHB_2
 9
 3
SDS
SDB
ENDF
PUSHB_1
 1
FDEF
DUP
DUP
RCVT
ROUND[Black]
WCVTP
PUSHB_1
 1
ADD
ENDF
PUSHB_1
 2
FDEF
PUSHB_1
 1
LOOPCALL
POP
ENDF
PUSHB_1
 3
FDEF
DUP
GC[cur]
PUSHB_1
 3
CINDEX
GC[cur]
GT
IF
SWAP
EIF
DUP
ROLL
DUP
ROLL
MD[grid]
ABS
ROLL
DUP
GC[cur]
DUP
ROUND[Grey]
SUB
ABS
PUSHB_1
 4
CINDEX
GC[cur]
DUP
ROUND[Grey]
SUB
ABS
GT
IF
SWAP
NEG
ROLL
EIF

StartChar: .notdef
Encoding: 65536 -1 0
Width: 1307
Flags: W
LayerCount: 2
Fore
SplineSet
184 1000 m 1,0,-1
 1123 1000 l 1,1,-1
 1123 0 l 1,2,-1
 184 0 l 1,3,-1
 184 1000 l 1,0,-1
892 863 m 1,4,-1
 423 863 l 1,5,-1
 657 599 l 1,6,-1
 892 863 l 1,4,-1
568 499 m 1,7,-1
 329 767 l 1,8,-1
 329 230 l 1,9,-1
 568 499 l 1,7,-1
978 239 m 1,10,-1
 978 758 l 1,11,-1
 747 499 l 1,12,-1
 978 239 l 1,10,-1
889 138 m 1,13,-1
 657 398 l 1,14,-1
 425 138 l 1,15,-1
 889 138 l 1,13,-1
EndSplineSet
Ligature2: "'liga' Standard Ligatures in Latin lookup 0 subtable" f l
Ligature2: "'liga' Standard Ligatures in Latin lookup 0 subtable" f i
Position2: "'cpsp' Capital Spacing in Latin lookup 0 subtable" dx=16 dy=0 dh=32 dv=0
EndChar

StartChar: exclam
Encoding: 33 33 23
Width: 602
GlyphClass: 2
Flags: W
LayerCount: 2
Fore
SplineSet
199 1415 m 1,0,-1
 404 1415 l 1,1,-1
 374 410 l 1,2,-1
 229 410 l 1,3,-1
 199 1415 l 1,0,-1
211 21 m 128,-1,5
 177 55 177 55 177 111 c 128,-1,6
 177 167 177 167 211 200.5 c 128,-1,7
 245 234 245 234 301 234 c 128,-1,8
 357 234 357 234 391 200.5 c 128,-1,9
 425 167 425 167 425 111 c 128,-1,10
 425 55 425 55 391 21 c 128,-1,11
 357 -13 357 -13 301 -13 c 128,-1,4
 245 -13 245 -13 211 21 c 128,-1,5
EndSplineSet
EndChar

StartChar: quotedbl
Encoding: 34 34 24
Width: 881
GlyphClass: 2
Flags: W
LayerCount: 2
Fore
SplineSet
522 1417 m 1,0,-1
 716 1417 l 1,1,-1
 686 940 l 1,2,-1
 552 940 l 1,3,-1
 522 1417 l 1,0,-1
165 1417 m 1,4,-1
 359 1417 l 1,5,-1
 329 940 l 1,6,-1
 195 940 l 1,7,-1
 165 1417 l 1,4,-1
EndSplineSet
EndChar

StartChar: numbersign
Encoding: 35 35 25
Width: 1589
GlyphClass: 2
Flags: W
LayerCount: 2
Fore
SplineSet
389 406 m 1,0,-1
 171 406 l 1,1,-1
 171 560 l 1,2,-1
 417 560 l 1,3,-1
 482 906 l 1,4,-1
 171 906 l 1,5,-1
 171 1060 l 1,6,-1
 510 1060 l 1,7,-1
 580 1435 l 1,8,-1
 733 1396 l 1,9,-1
 670 1060 l 1,10,-1
 1038 1060 l 1,11,-1
 1107 1435 l 1,12,-1
 1260 1397 l 1,13,-1
 1198 1060 l 1,14,-1
 1418 1060 l 1,15,-1
 1418 906 l 1,16,-1
 1170 906 l 1,17,-1
 1106 560 l 1,18,-1
 1418 560 l 1,19,-1
 1418 406 l 1,20,-1
 1078 406 l 1,21,-1
 1000 -19 l 1,22,-1
 847 20 l 1,23,-1
 918 406 l 1,24,-1
 549 406 l 1,25,-1
 470 -19 l 1,26,-1
 317 19 l 1,27,-1
 389 406 l 1,0,-1
946 560 m 1,28,-1
 1010 906 l 1,29,-1
 642 906 l 1,30,-1
 577 560 l 1,31,-1
 946 560 l 1,28,-1
EndSplineSet
EndChar

StartChar: dollar
Encoding: 36 36 26
Width: 1288
GlyphClass: 2
Flags: W
LayerCount: 2
Fore
SplineSet
211 406 m 1,0,1
 374 283 374 283 565 254 c 1,2,-1
 565 659 l 1,3,4
 370 696 370 696 294 741 c 128,-1,5
 218 786 218 786 182 840.5 c 128,-1,6
 146 895 146 895 146 975.5 c 128,-1,7
 146 1056 146 1056 181.5 1118.5 c 128,-1,8
 217 1181 217 1181 276 1226 c 0,9,10
 393 1315 393 1315 565 1332 c 1,11,-1
 565 1471 l 1,12,-1
 718 1471 l 1,13,-1
 718 1332 l 1,14,15
 925 1311 925 1311 1089 1206 c 1,16,-1
 1020 1044 l 1,17,18
 880 1128 880 1128 718 1159 c 1,19,-1
 718 802 l 1,20,21
 928 760 928 760 1005.5 716 c 128,-1,22
 1083 672 1083 672 1122 615.5 c 128,-1,23
 1161 559 1161 559 1161 472 c 0,24,25
 1161 308 1161 308 1026 204 c 0,26,27
 906 111 906 111 718 87 c 1,28,-1
 718 -96 l 1,29,-1
 565 -96 l 1,30,-1
 565 82 l 1,31,32
 380 94 380 94 212 184 c 0,33,34
 159 212 159 212 116 246 c 1,35,-1
 211 406 l 1,0,1
565 1165 m 1,36,37
 413 1147 413 1147 362 1064 c 0,38,39
 344 1034 344 1034 344 995 c 128,-1,40
 344 956 344 956 361 931 c 128,-1,41
 378 906 378 906 408 888 c 1,42,43
 461 854 461 854 565 832 c 1,44,-1
 565 1165 l 1,36,37
718 254 m 1,45,46
 885 275 885 275 942 374 c 0,47,48
 963 410 963 410 963 453 c 128,-1,49
 963 496 963 496 944 523 c 128,-1,50
 925 550 925 550 892 570 c 0,51,52
 836 603 836 603 718 628 c 1,53,-1
 718 254 l 1,45,46
EndSplineSet
EndChar

StartChar: percent
Encoding: 37 37 27
Width: 1468
GlyphClass: 2
Flags: W
LayerCount: 2
Fore
SplineSet
1246 1439 m 1,0,-1
 1367 1339 l 1,1,-1
 232 -17 l 1,2,-1
 111 83 l 1,3,-1
 1246 1439 l 1,0,-1
368 856 m 0,4,5
 240 856 240 856 156 936 c 0,6,7
 69 1019 69 1019 69 1143 c 256,8,9
 69 1267 69 1267 156 1352 c 0,10,11
 242 1436 242 1436 370 1436 c 0,12,13
 497 1436 497 1436 582 1354 c 1,14,15
 669 1272 669 1272 669 1147 c 256,16,17
 669 1022 669 1022 582 938 c 1,18,19
 495 856 495 856 368 856 c 0,4,5
488.5 1022.5 m 128,-1,21
 532 1068 532 1068 532 1143 c 0,22,23
 532 1261 532 1261 436 1302 c 0,24,25
 405 1315 405 1315 368 1315 c 0,26,27
 293 1315 293 1315 249.5 1268.5 c 128,-1,28
 206 1222 206 1222 206 1165.5 c 128,-1,29
 206 1109 206 1109 217.5 1078 c 128,-1,30
 229 1047 229 1047 250 1024 c 1,31,32
 296 977 296 977 370.5 977 c 128,-1,20
 445 977 445 977 488.5 1022.5 c 128,-1,21
799 267 m 256,33,34
 799 391 799 391 886 476 c 0,35,36
 972 560 972 560 1100 560 c 0,37,38
 1227 560 1227 560 1312 478 c 1,39,40
 1399 396 1399 396 1399 271 c 256,41,42
 1399 146 1399 146 1312 62 c 1,43,44
 1225 -20 1225 -20 1098 -20 c 0,45,46
 970 -20 970 -20 886 60 c 0,47,48
 799 143 799 143 799 267 c 256,33,34
979.5 392.5 m 128,-1,50
 936 346 936 346 936 289.5 c 128,-1,51
 936 233 936 233 947.5 202 c 128,-1,52
 959 171 959 171 980 148 c 1,53,54
 1026 101 1026 101 1100.5 101 c 128,-1,55
 1175 101 1175 101 1218.5 146.5 c 128,-1,56
 1262 192 1262 192 1262 267 c 0,57,58
 1262 385 1262 385 1166 426 c 0,59,60
 1135 439 1135 439 1098 439 c 0,61,49
 1023 439 1023 439 979.5 392.5 c 128,-1,50
EndSplineSet
EndChar

StartChar: ampersand
Encoding: 38 38 28
Width: 1535
GlyphClass: 2
Flags: W
LayerCount: 2
Fore
SplineSet
1099 168 m 1,0,1
 914 -19 914 -19 645 -19 c 0,2,3
 428 -19 428 -19 289 82 c 0,4,5
 137 193 137 193 137 387 c 0,6,7
 137 643 137 643 409 808 c 1,8,9
 321 938 321 938 321 1034.5 c 128,-1,10
 321 1131 321 1131 352 1205 c 128,-1,11
 383 1279 383 1279 438 1330 c 0,12,13
 552 1436 552 1436 743 1436 c 0,14,15
 956 1436 956 1436 1125 1300 c 1,16,-1
 1032 1152 l 1,17,18
 936 1236 936 1236 804 1262 c 0,19,20
 764 1270 764 1270 725 1270 c 0,21,22
 627 1270 627 1270 572 1217.5 c 128,-1,23
 517 1165 517 1165 517 1067 c 0,24,25
 517 906 517 906 938 550 c 1,26,-1
 1077 434 l 1,27,28
 1156 602 1156 602 1156 812 c 1,29,-1
 1343 814 l 1,30,31
 1343 538 1343 538 1217 323 c 1,32,-1
 1496 112 l 1,33,-1
 1373 -29 l 1,34,-1
 1099 168 l 1,0,1
965 270 m 1,35,36
 665 505 665 505 514 676 c 1,37,38
 373 598 373 598 344 498 c 0,39,40
 333 462 333 462 333 408 c 128,-1,41
 333 354 333 354 361 304 c 128,-1,42
 389 254 389 254 435 219 c 0,43,44
 530 147 530 147 643 147 c 0,45,46
 840 147 840 147 965 270 c 1,35,36
EndSplineSet
Position2: "'cpsp' Capital Spacing in Latin lookup 0 subtable" dx=16 dy=0 dh=32 dv=0
EndChar

StartChar: quotesingle
Encoding: 39 39 29
Width: 524
GlyphClass: 2
Flags: W
LayerCount: 2
Fore
SplineSet
165 1416 m 1,0,-1
 359 1416 l 1,1,-1
 329 939 l 1,2,-1
 195 939 l 1,3,-1
 165 1416 l 1,0,-1
EndSplineSet
EndChar

StartChar: parenleft
Encoding: 40 40 30
Width: 800
GlyphClass: 2
Flags: W
LayerCount: 2
Fore
SplineSet
556 -307 m 1,0,1
 137 61 137 61 137 633 c 0,2,3
 137 1220 137 1220 569 1590 c 1,4,-1
 668 1485 l 1,5,6
 403 1208 403 1208 342 893 c 0,7,8
 321 784 321 784 321 651 c 128,-1,9
 321 518 321 518 348 394 c 128,-1,10
 375 270 375 270 423 164 c 0,11,12
 510 -29 510 -29 679 -207 c 1,13,-1
 556 -307 l 1,0,1
EndSplineSet
EndChar

StartChar: asterisk
Encoding: 42 42 32
Width: 1107
GlyphClass: 2
Flags: W
LayerCount: 2
Fore
SplineSet
480 1218 m 1,0,-1
 244 1101 l 1,1,-1
 187 1199 l 1,2,-1
 406 1345 l 1,3,-1
 187 1491 l 1,4,-1
 244 1589 l 1,5,-1
 480 1471 l 1,6,-1
 496 1735 l 1,7,-1
 610 1735 l 1,8,-1
 626 1472 l 1,9,-1
 863 1590 l 1,10,-1
 920 1491 l 1,11,-1
 699 1345 l 1,12,-1
 920 1199 l 1,13,-1
 863 1100 l 1,14,-1
 626 1218 l 1,15,-1
 610 954 l 1,16,-1
 496 954 l 1,17,-1
 480 1218 l 1,0,-1
EndSplineSet
EndChar

StartChar: plus
Encoding: 43 43 33
Width: 1336
GlyphClass: 2
Flags: W
LayerCount: 2
Fore
SplineSet
207 614 m 1,0,-1
 575 614 l 1,1,-1
 575 1000 l 1,2,-1
 760 1000 l 1,3,-1
 760 614 l 1,4,-1
 1129 614 l 1,5,-1
 1129 446 l 1,6,-1
 760 446 l 1,7,-1
 760 60 l 1,8,-1
 575 60 l 1,9,-1
 575 446 l 1,10,-1
 207 446 l 1,11,-1
 207 614 l 1,0,-1
EndSplineSet
EndChar

StartChar: comma
Encoding: 44 44 34
Width: 527
GlyphClass: 2
Flags: W
LayerCount: 2
Fore
SplineSet
211 32 m 1,0,1
 159 66 159 66 159 122 c 0,2,3
 159 199 159 199 236 226 c 0,4,5
 258 234 258 234 284 234 c 128,-1,6
 310 234 310 234 333 224 c 128,-1,7
 356 214 356 214 372 197 c 0,8,9
 407 161 407 161 407 118 c 128,-1,10
 407 75 407 75 396.5 37.5 c 128,-1,11
 386 0 386 0 369 -38 c 128,-1,12
 352 -76 352 -76 330.5 -113 c 128,-1,13
 309 -150 309 -150 286 -182 c 0,14,15
 236 -250 236 -250 203 -279 c 1,16,-1
 112 -228 l 1,17,18
 165 -155 165 -155 198 -34 c 0,19,20
 209 3 209 3 211 32 c 1,0,1
EndSplineSet
EndChar

StartChar: hyphen
Encoding: 45 45 35
Width: 1136
GlyphClass: 2
Flags: W
LayerCount: 2
Fore
SplineSet
207 669 m 1,0,-1
 929 669 l 1,1,-1
 929 515 l 1,2,-1
 207 515 l 1,3,-1
 207 669 l 1,0,-1
EndSplineSet
EndChar

StartChar: period
Encoding: 46 46 36
Width: 527
GlyphClass: 2
Flags: W
LayerCount: 2
Fore
SplineSet
192 21 m 128,-1,1
 158 55 158 55 158 111 c 128,-1,2
 158 167 158 167 192 200.5 c 128,-1,3
 226 234 226 234 282 234 c 128,-1,4
 338 234 338 234 372 200.5 c 128,-1,5
 406 167 406 167 406 111 c 128,-1,6
 406 55 406 55 372 21 c 128,-1,7
 338 -13 338 -13 282 -13 c 128,-1,0
 226 -13 226 -13 192 21 c 128,-1,1
EndSplineSet
EndChar

StartChar: slash
Encoding: 47 47 37
Width: 997
GlyphClass: 2
Flags: W
LayerCount: 2
Fore
SplineSet
749 1561 m 1,0,-1
 924 1561 l 1,1,-1
 248 -467 l 1,2,-1
 73 -467 l 1,3,-1
 749 1561 l 1,0,-1
EndSplineSet
EndChar

StartChar: zero
Encoding: 48 48 38
Width: 1662
GlyphClass: 2
Flags: W
LayerCount: 2
Fore
SplineSet
137 696 m 0,0,1
 137 856 137 856 185.5 993 c 128,-1,2
 234 1130 234 1130 325 1228 c 0,3,4
 518 1436 518 1436 840 1436 c 0,5,6
 1151 1436 1151 1436 1339 1236 c 0,7,8
 1525 1039 1525 1039 1525 723 c 0,9,10
 1525 390 1525 390 1337 188 c 0,11,12
 1144 -20 1144 -20 822 -20 c 0,13,14
 511 -20 511 -20 322 180 c 0,15,16
 137 375 137 375 137 696 c 0,0,1
333 721 m 0,17,18
 333 601 333 601 366.5 496 c 128,-1,19
 400 391 400 391 465 313 c 0,20,21
 604 146 604 146 840 146 c 0,22,23
 1070 146 1070 146 1202 302 c 0,24,25
 1329 452 1329 452 1329 693 c 0,26,27
 1329 945 1329 945 1197 1103 c 0,28,29
 1058 1270 1058 1270 822 1270 c 0,30,31
 593 1270 593 1270 460 1114 c 0,32,33
 333 966 333 966 333 721 c 0,17,18
EndSplineSet
EndChar

StartChar: one
Encoding: 49 49 39
Width: 853
GlyphClass: 2
Flags: W
LayerCount: 2
Fore
SplineSet
484 1237 m 1,0,-1
 109 1025 l 1,1,-1
 55 1186 l 1,2,-1
 484 1416 l 1,3,-1
 669 1416 l 1,4,-1
 669 0 l 1,5,-1
 484 0 l 1,6,-1
 484 1237 l 1,0,-1
EndSplineSet
EndChar

StartChar: two
Encoding: 50 50 40
Width: 1249
GlyphClass: 2
Flags: W
LayerCount: 2
Fore
SplineSet
148 168 m 1,0,-1
 523 492 l 1,1,2
 889 811 889 811 889 1002 c 0,3,4
 889 1141 889 1141 814.5 1204.5 c 128,-1,5
 740 1268 740 1268 585 1268 c 0,6,7
 459 1268 459 1268 282 1198 c 0,8,9
 238 1181 238 1181 213 1168 c 1,10,-1
 162 1327 l 1,11,12
 297 1396 297 1396 498 1426 c 0,13,14
 562 1436 562 1436 641 1436 c 128,-1,15
 720 1436 720 1436 806.5 1407 c 128,-1,16
 893 1378 893 1378 955 1324 c 0,17,18
 1085 1211 1085 1211 1085 1014 c 0,19,20
 1085 745 1085 745 706 426 c 2,21,-1
 408 175 l 1,22,-1
 1122 176 l 1,23,-1
 1122 0 l 1,24,-1
 148 0 l 1,25,-1
 148 168 l 1,0,-1
EndSplineSet
EndChar

StartChar: three
Encoding: 51 51 41
Width: 1270
GlyphClass: 2
Flags: W
LayerCount: 2
Fore
SplineSet
335 814 m 1,0,1
 458 808 458 808 529 808 c 128,-1,2
 600 808 600 808 665 821 c 128,-1,3
 730 834 730 834 780 863 c 0,4,5
 891 927 891 927 891 1056 c 0,6,7
 891 1162 891 1162 800 1218 c 0,8,9
 719 1268 719 1268 595 1268 c 0,10,11
 455 1268 455 1268 301 1212 c 0,12,13
 256 1195 256 1195 223 1178 c 1,14,-1
 172 1337 l 1,15,16
 304 1403 304 1403 511 1428 c 0,17,18
 572 1436 572 1436 643.5 1436 c 128,-1,19
 715 1436 715 1436 798.5 1412.5 c 128,-1,20
 882 1389 882 1389 946 1342 c 0,21,22
 1087 1240 1087 1240 1087 1068 c 0,23,24
 1087 906 1087 906 956 803 c 0,25,26
 912 769 912 769 854 749 c 1,27,-1
 853 740 l 1,28,29
 1133 667 1133 667 1133 406 c 0,30,31
 1133 212 1133 212 956 91 c 0,32,33
 794 -20 794 -20 575 -20 c 0,34,35
 288 -20 288 -20 112 89 c 1,36,-1
 165 255 l 1,37,38
 293 181 293 181 484 156 c 0,39,40
 545 148 545 148 605 148 c 128,-1,41
 665 148 665 148 724.5 164 c 128,-1,42
 784 180 784 180 830 211 c 0,43,44
 933 280 933 280 933 397 c 0,45,46
 933 543 933 543 756 606 c 1,47,48
 592 663 592 663 335 633 c 1,49,-1
 335 814 l 1,0,1
EndSplineSet
EndChar

StartChar: four
Encoding: 52 52 42
Width: 1398
GlyphClass: 2
Flags: W
LayerCount: 2
Fore
SplineSet
77 506 m 1,0,-1
 844 1416 l 1,1,-1
 1029 1416 l 1,2,-1
 1029 508 l 1,3,-1
 1309 508 l 1,4,-1
 1309 340 l 1,5,-1
 1029 340 l 1,6,-1
 1029 0 l 1,7,-1
 844 0 l 1,8,-1
 844 340 l 1,9,-1
 131 340 l 1,10,-1
 77 506 l 1,0,-1
844 508 m 1,11,-1
 844 1191 l 1,12,-1
 282 508 l 1,13,-1
 844 508 l 1,11,-1
EndSplineSet
EndChar

StartChar: five
Encoding: 53 53 43
Width: 1271
GlyphClass: 2
Flags: W
LayerCount: 2
Fore
SplineSet
166 255 m 1,0,1
 354 148 354 148 569 148 c 0,2,3
 725 148 725 148 826 218 c 0,4,5
 934 292 934 292 934 427 c 0,6,7
 934 590 934 590 734 650 c 1,8,9
 537 708 537 708 191 651 c 1,10,-1
 191 1416 l 1,11,-1
 1046 1416 l 1,12,-1
 1046 1248 l 1,13,-1
 376 1248 l 1,14,-1
 376 835 l 1,15,16
 688 877 688 877 898 786 c 0,17,18
 1134 684 1134 684 1134 436 c 0,19,20
 1134 217 1134 217 946 92 c 0,21,22
 778 -20 778 -20 540 -20 c 0,23,24
 288 -20 288 -20 113 89 c 1,25,-1
 166 255 l 1,0,1
EndSplineSet
EndChar

StartChar: six
Encoding: 54 54 44
Width: 1418
GlyphClass: 2
Flags: W
LayerCount: 2
Fore
SplineSet
347 779 m 1,0,1
 545 892 545 892 789 892 c 0,2,3
 1007 892 1007 892 1144 788 c 1,4,5
 1292 678 1292 678 1292 477 c 0,6,7
 1292 257 1292 257 1126 116 c 0,8,9
 965 -20 965 -20 733 -20 c 0,10,11
 456 -20 456 -20 296 150 c 0,12,13
 138 318 138 318 138 601 c 0,14,15
 138 1188 138 1188 527 1370 c 0,16,17
 682 1443 682 1443 879 1436 c 0,18,19
 1055 1429 1055 1429 1218 1358 c 1,20,-1
 1170 1199 l 1,21,22
 861 1323 861 1323 644 1238 c 0,23,24
 401 1142 401 1142 347 779 c 1,0,1
334 576 m 2,25,26
 334 383 334 383 446 265 c 0,27,28
 560 146 560 146 751 146 c 0,29,30
 898 146 898 146 994 226 c 0,31,32
 1096 311 1096 311 1096 447 c 0,33,34
 1096 576 1096 576 1000 652 c 0,35,36
 909 724 909 724 771 724 c 0,37,38
 583 724 583 724 418 642 c 0,39,40
 369 618 369 618 334 593 c 1,41,-1
 334 576 l 2,25,26
EndSplineSet
EndChar

StartChar: seven
Encoding: 55 55 45
Width: 1105
GlyphClass: 2
Flags: W
LayerCount: 2
Fore
SplineSet
856 1258 m 1,0,1
 699 1248 699 1248 570 1248 c 2,2,-1
 61 1248 l 1,3,-1
 61 1416 l 1,4,-1
 1058 1416 l 1,5,-1
 1058 1248 l 1,6,7
 885 1065 885 1065 692 668 c 1,8,9
 497 263 497 263 452 0 c 1,10,-1
 247 0 l 1,11,12
 314 313 314 313 510 708 c 0,13,14
 693 1076 693 1076 856 1258 c 1,0,1
EndSplineSet
EndChar

StartChar: eight
Encoding: 56 56 46
Width: 1332
GlyphClass: 2
Flags: W
LayerCount: 2
Fore
SplineSet
169.5 212.5 m 128,-1,1
 127 291 127 291 127 373.5 c 128,-1,2
 127 456 127 456 147.5 509.5 c 128,-1,3
 168 563 168 563 202 608 c 0,4,5
 274 701 274 701 381 738 c 1,6,-1
 381 744 l 1,7,8
 293 769 293 769 232 852 c 0,9,10
 168 938 168 938 168 1037.5 c 128,-1,11
 168 1137 168 1137 211 1209.5 c 128,-1,12
 254 1282 254 1282 324 1332 c 0,13,14
 469 1436 469 1436 672 1436 c 0,15,16
 878 1436 878 1436 1014 1340 c 1,17,18
 1159 1236 1159 1236 1159 1062 c 0,19,20
 1159 902 1159 902 1028 802 c 0,21,22
 984 769 984 769 926 749 c 1,23,-1
 926 744 l 1,24,25
 1126 688 1126 688 1186 523 c 0,26,27
 1205 469 1205 469 1205 403.5 c 128,-1,28
 1205 338 1205 338 1183 280 c 128,-1,29
 1161 222 1161 222 1122.5 174.5 c 128,-1,30
 1084 127 1084 127 1031.5 91 c 128,-1,31
 979 55 979 55 918 30 c 0,32,33
 796 -20 796 -20 672 -20 c 128,-1,34
 548 -20 548 -20 452.5 5.5 c 128,-1,35
 357 31 357 31 284.5 82.5 c 128,-1,0
 212 134 212 134 169.5 212.5 c 128,-1,1
547 822 m 128,-1,37
 604 808 604 808 663.5 808 c 128,-1,38
 723 808 723 808 775 825.5 c 128,-1,39
 827 843 827 843 869 875 c 0,40,41
 963 947 963 947 963 1050 c 0,42,43
 963 1156 963 1156 872 1215 c 0,44,45
 790 1268 790 1268 654 1268 c 0,46,47
 466 1268 466 1268 389 1153 c 0,48,49
 363 1114 363 1114 363 1054 c 128,-1,50
 363 994 363 994 385.5 945.5 c 128,-1,51
 408 897 408 897 449 866.5 c 128,-1,36
 490 836 490 836 547 822 c 128,-1,37
351 515 m 0,52,53
 320 470 320 470 320 405.5 c 128,-1,54
 320 341 320 341 349 293 c 128,-1,55
 378 245 378 245 426 212 c 1,56,57
 523 148 523 148 672 148 c 0,58,59
 897 148 897 148 978 285 c 0,60,61
 1005 332 1005 332 1005 396.5 c 128,-1,62
 1005 461 1005 461 974 507.5 c 128,-1,63
 943 554 943 554 893 584 c 0,64,65
 795 643 795 643 654 643 c 0,66,67
 439 643 439 643 351 515 c 0,52,53
EndSplineSet
EndChar

StartChar: colon
Encoding: 58 58 48
Width: 527
GlyphClass: 2
Flags: W
LayerCount: 2
Fore
SplineSet
372 601 m 128,-1,1
 338 567 338 567 282 567 c 128,-1,2
 226 567 226 567 192 601 c 128,-1,3
 158 635 158 635 158 691 c 128,-1,4
 158 747 158 747 192 780.5 c 128,-1,5
 226 814 226 814 282 814 c 128,-1,6
 338 814 338 814 372 780.5 c 128,-1,7
 406 747 406 747 406 691 c 128,-1,0
 406 635 406 635 372 601 c 128,-1,1
192 21 m 128,-1,9
 158 55 158 55 158 111 c 128,-1,10
 158 167 158 167 192 200.5 c 128,-1,11
 226 234 226 234 282 234 c 128,-1,12
 338 234 338 234 372 200.5 c 128,-1,13
 406 167 406 167 406 111 c 128,-1,14
 406 55 406 55 372 21 c 128,-1,15
 338 -13 338 -13 282 -13 c 128,-1,8
 226 -13 226 -13 192 21 c 128,-1,9
EndSplineSet
EndChar

StartChar: semicolon
Encoding: 59 59 49
Width: 527
GlyphClass: 2
Flags: W
LayerCount: 2
Fore
SplineSet
372 601 m 128,-1,1
 338 567 338 567 282 567 c 128,-1,2
 226 567 226 567 192 601 c 128,-1,3
 158 635 158 635 158 691 c 128,-1,4
 158 747 158 747 192 780.5 c 128,-1,5
 226 814 226 814 282 814 c 128,-1,6
 338 814 338 814 372 780.5 c 128,-1,7
 406 747 406 747 406 691 c 128,-1,0
 406 635 406 635 372 601 c 128,-1,1
211 32 m 1,8,9
 159 66 159 66 159 122 c 0,10,11
 159 199 159 199 236 226 c 0,12,13
 258 234 258 234 284 234 c 128,-1,14
 310 234 310 234 333 224 c 128,-1,15
 356 214 356 214 372 197 c 0,16,17
 407 161 407 161 407 118 c 128,-1,18
 407 75 407 75 396.5 37.5 c 128,-1,19
 386 0 386 0 369 -38 c 128,-1,20
 352 -76 352 -76 330.5 -113 c 128,-1,21
 309 -150 309 -150 286 -182 c 0,22,23
 236 -250 236 -250 203 -279 c 1,24,-1
 112 -228 l 1,25,26
 165 -155 165 -155 198 -34 c 0,27,28
 209 3 209 3 211 32 c 1,8,9
EndSplineSet
EndChar

StartChar: less
Encoding: 60 60 50
Width: 1318
GlyphClass: 2
Flags: W
LayerCount: 2
Fore
SplineSet
107 743 m 1,0,-1
 921 1369 l 1,1,-1
 1034 1221 l 1,2,-1
 313 668 l 1,3,-1
 1033 192 l 1,4,-1
 927 35 l 1,5,-1
 107 571 l 1,6,-1
 107 743 l 1,0,-1
EndSplineSet
EndChar

StartChar: equal
Encoding: 61 61 51
Width: 1336
GlyphClass: 2
Flags: W
LayerCount: 2
Fore
SplineSet
207 829 m 1,0,-1
 1129 829 l 1,1,-1
 1129 675 l 1,2,-1
 207 675 l 1,3,-1
 207 829 l 1,0,-1
207 429 m 1,4,-1
 1129 429 l 1,5,-1
 1129 275 l 1,6,-1
 207 275 l 1,7,-1
 207 429 l 1,4,-1
EndSplineSet
EndChar

StartChar: question
Encoding: 63 63 53
Width: 1035
GlyphClass: 2
Flags: W
LayerCount: 2
Fore
SplineSet
82 1342 m 1,0,1
 292 1436 292 1436 525 1436 c 0,2,3
 813 1436 813 1436 920 1292 c 0,4,5
 959 1239 959 1239 959 1168 c 128,-1,6
 959 1097 959 1097 935.5 1045.5 c 128,-1,7
 912 994 912 994 874 951 c 128,-1,8
 836 908 836 908 788 870 c 2,9,-1
 694 796 l 2,10,11
 571 700 571 700 534 645 c 0,12,13
 461 534 461 534 488 410 c 1,14,-1
 326 378 l 1,15,16
 287 597 287 597 429 756 c 0,17,18
 497 832 497 832 572.5 891.5 c 128,-1,19
 648 951 648 951 684 986 c 0,20,21
 763 1063 763 1063 763 1131 c 0,22,23
 763 1270 763 1270 507 1270 c 0,24,25
 388 1270 388 1270 208 1218 c 0,26,27
 159 1204 159 1204 126 1190 c 1,28,-1
 82 1342 l 1,0,1
351 21 m 128,-1,30
 317 55 317 55 317 111 c 128,-1,31
 317 167 317 167 351 200.5 c 128,-1,32
 385 234 385 234 441 234 c 128,-1,33
 497 234 497 234 531 200.5 c 128,-1,34
 565 167 565 167 565 111 c 128,-1,35
 565 55 565 55 531 21 c 128,-1,36
 497 -13 497 -13 441 -13 c 128,-1,29
 385 -13 385 -13 351 21 c 128,-1,30
EndSplineSet
EndChar

StartChar: at
Encoding: 64 64 54
Width: 1932
GlyphClass: 2
Flags: W
LayerCount: 2
Fore
SplineSet
1219 818 m 1,0,-1
 1232 883 l 1,1,-1
 1384 883 l 1,2,-1
 1295 448 l 2,3,4
 1278 364 1278 364 1297.5 311 c 128,-1,5
 1317 258 1317 258 1375.5 258 c 128,-1,6
 1434 258 1434 258 1481.5 299 c 128,-1,7
 1529 340 1529 340 1562 402 c 0,8,9
 1629 526 1629 526 1629 653 c 128,-1,10
 1629 780 1629 780 1588 872 c 128,-1,11
 1547 964 1547 964 1474 1030 c 0,12,13
 1325 1165 1325 1165 1092 1165 c 0,14,15
 895 1165 895 1165 707 1056 c 0,16,17
 527 952 527 952 418 782 c 1,18,19
 303 606 303 606 303 442.5 c 128,-1,20
 303 279 303 279 354.5 175.5 c 128,-1,21
 406 72 406 72 497 6 c 0,22,23
 675 -123 675 -123 979 -123 c 1,24,-1
 940 -243 l 1,25,26
 586 -243 586 -243 377 -92 c 0,27,28
 147 75 147 75 147 393 c 0,29,30
 147 650 147 650 294 865 c 0,31,32
 430 1063 430 1063 656 1181 c 0,33,34
 876 1296 876 1296 1110 1296 c 0,35,36
 1396 1296 1396 1296 1587 1136 c 0,37,38
 1785 970 1785 970 1785 697 c 0,39,40
 1785 483 1785 483 1662 306 c 1,41,42
 1580 190 1580 190 1463 142 c 0,43,44
 1404 117 1404 117 1337 117 c 0,45,46
 1174 117 1174 117 1138 255 c 1,47,48
 994 117 994 117 841 117 c 0,49,50
 709 117 709 117 631 206 c 0,51,52
 554 293 554 293 554 429 c 0,53,54
 554 546 554 546 616 662 c 0,55,56
 675 774 675 774 777 846 c 0,57,58
 881 919 881 919 1010.5 919 c 128,-1,59
 1140 919 1140 919 1219 818 c 1,0,-1
1190 670 m 1,60,61
 1081 772 1081 772 961 772 c 0,62,63
 862 772 862 772 792 666 c 1,64,65
 728 567 728 567 728 456 c 0,66,67
 728 327 728 327 803 280 c 0,68,69
 829 263 829 263 870 263 c 128,-1,70
 911 263 911 263 952.5 278 c 128,-1,71
 994 293 994 293 1029 316 c 0,72,73
 1087 353 1087 353 1138 409 c 1,74,75
 1140 418 1140 418 1141.5 427.5 c 128,-1,76
 1143 437 1143 437 1146 448 c 2,77,-1
 1190 670 l 1,60,61
1261 741 m 1,78,-1
 1262 741 l 1,79,-1
 1261 741 l 1,78,-1
EndSplineSet
EndChar

StartChar: A
Encoding: 65 65 55
Width: 1430
GlyphClass: 2
Flags: W
LayerCount: 2
Fore
SplineSet
687 1416 m 1,0,-1
 792 1416 l 1,1,-1
 1405 0 l 1,2,-1
 1203 0 l 1,3,-1
 1069 310 l 1,4,-1
 360 310 l 1,5,-1
 215 0 l 1,6,-1
 25 0 l 1,7,-1
 687 1416 l 1,0,-1
997 478 m 1,8,-1
 869 775 l 2,9,10
 845 831 845 831 822 891 c 1,11,-1
 782 1004 l 2,12,13
 744 1114 744 1114 737 1154 c 1,14,-1
 725 1154 l 1,15,16
 717 1114 717 1114 689 1040 c 2,17,18
 689 1040 689 1040 638 910 c 0,19,20
 615 854 615 854 588 796 c 2,21,-1
 439 478 l 1,22,-1
 997 478 l 1,8,-1
EndSplineSet
Position2: "'cpsp' Capital Spacing in Latin lookup 0 subtable" dx=16 dy=0 dh=32 dv=0
EndChar

StartChar: B
Encoding: 66 66 56
Width: 1520
GlyphClass: 2
Flags: W
LayerCount: 2
Fore
SplineSet
184 1416 m 1,0,-1
 705 1416 l 2,1,2
 958 1416 958 1416 1092 1354 c 1,3,4
 1263 1273 1263 1273 1263 1075 c 0,5,6
 1263 989 1263 989 1202 908 c 0,7,8
 1147 834 1147 834 1076 812 c 1,9,10
 1219 785 1219 785 1305 687 c 0,11,12
 1393 586 1393 586 1393 441 c 0,13,14
 1393 133 1393 133 1058 38 c 0,15,16
 921 0 921 0 737 0 c 2,17,-1
 184 0 l 1,18,-1
 184 1416 l 1,0,-1
723 866 m 2,19,20
 949 866 949 866 1035 968 c 0,21,22
 1067 1006 1067 1006 1067 1067 c 128,-1,23
 1067 1128 1067 1128 1029.5 1164.5 c 128,-1,24
 992 1201 992 1201 934 1220 c 0,25,26
 846 1248 846 1248 676 1248 c 2,27,-1
 369 1248 l 1,28,-1
 369 866 l 1,29,-1
 723 866 l 2,19,20
1197 429 m 0,30,31
 1197 698 1197 698 756 698 c 2,32,-1
 369 698 l 1,33,-1
 369 168 l 1,34,-1
 762 168 l 2,35,36
 1065 168 1065 168 1160 297 c 0,37,38
 1197 348 1197 348 1197 429 c 0,30,31
EndSplineSet
Position2: "'cpsp' Capital Spacing in Latin lookup 0 subtable" dx=16 dy=0 dh=32 dv=0
EndChar

StartChar: C
Encoding: 67 67 57
Width: 1492
GlyphClass: 2
Flags: W
LayerCount: 2
Fore
SplineSet
1329 1122 m 1,0,1
 1163 1270 1163 1270 902 1270 c 0,2,3
 665 1270 665 1270 500 1114 c 0,4,5
 333 957 333 957 333 723 c 0,6,7
 333 481 333 481 505 313 c 0,8,9
 676 146 676 146 920 146 c 0,10,11
 1097 146 1097 146 1273 236 c 0,12,13
 1325 262 1325 262 1363 293 c 1,14,-1
 1435 155 l 1,15,16
 1288 29 1288 29 1056 -8 c 0,17,18
 981 -20 981 -20 902 -20 c 0,19,20
 745 -20 745 -20 606 32.5 c 128,-1,21
 467 85 467 85 362.5 179.5 c 128,-1,22
 258 274 258 274 197.5 405 c 128,-1,23
 137 536 137 536 137 669 c 128,-1,24
 137 802 137 802 164.5 899.5 c 128,-1,25
 192 997 192 997 243 1079.5 c 128,-1,26
 294 1162 294 1162 365 1228 c 128,-1,27
 436 1294 436 1294 523 1340 c 0,28,29
 705 1436 705 1436 920 1436 c 0,30,31
 1211 1436 1211 1436 1422 1270 c 1,32,-1
 1329 1122 l 1,0,1
EndSplineSet
Position2: "'cpsp' Capital Spacing in Latin lookup 0 subtable" dx=16 dy=0 dh=32 dv=0
EndChar

StartChar: D
Encoding: 68 68 58
Width: 1600
GlyphClass: 2
Flags: W
LayerCount: 2
Fore
SplineSet
184 1416 m 1,0,-1
 765 1416 l 2,1,2
 1090 1416 1090 1416 1288 1234 c 0,3,4
 1493 1046 1493 1046 1493 731 c 0,5,6
 1493 398 1493 398 1283 198 c 0,7,8
 1076 0 1076 0 737 0 c 2,9,-1
 184 0 l 1,10,-1
 184 1416 l 1,0,-1
762 168 m 2,11,12
 1011 168 1011 168 1155 318 c 0,13,14
 1297 466 1297 466 1297 719 c 0,15,16
 1297 963 1297 963 1140 1107 c 0,17,18
 987 1248 987 1248 736 1248 c 2,19,-1
 369 1248 l 1,20,-1
 369 168 l 1,21,-1
 762 168 l 2,11,12
EndSplineSet
Position2: "'cpsp' Capital Spacing in Latin lookup 0 subtable" dx=16 dy=0 dh=32 dv=0
EndChar

StartChar: E
Encoding: 69 69 59
Width: 1370
GlyphClass: 2
Flags: W
LayerCount: 2
Fore
SplineSet
184 1416 m 1,0,-1
 1241 1416 l 1,1,-1
 1241 1248 l 1,2,-1
 369 1248 l 1,3,-1
 369 866 l 1,4,-1
 1146 866 l 1,5,-1
 1146 698 l 1,6,-1
 369 698 l 1,7,-1
 369 168 l 1,8,-1
 1261 168 l 1,9,-1
 1261 0 l 1,10,-1
 184 0 l 1,11,-1
 184 1416 l 1,0,-1
EndSplineSet
Position2: "'cpsp' Capital Spacing in Latin lookup 0 subtable" dx=16 dy=0 dh=32 dv=0
EndChar

StartChar: F
Encoding: 70 70 60
Width: 1248
GlyphClass: 2
Flags: W
LayerCount: 2
Fore
SplineSet
184 1416 m 1,0,-1
 1141 1416 l 1,1,-1
 1141 1248 l 1,2,-1
 369 1248 l 1,3,-1
 369 646 l 1,4,-1
 1066 646 l 1,5,-1
 1066 478 l 1,6,-1
 369 478 l 1,7,-1
 369 0 l 1,8,-1
 184 0 l 1,9,-1
 184 1416 l 1,0,-1
EndSplineSet
Position2: "'cpsp' Capital Spacing in Latin lookup 0 subtable" dx=16 dy=0 dh=32 dv=0
EndChar

StartChar: G
Encoding: 71 71 61
Width: 1704
GlyphClass: 2
Flags: W
LayerCount: 2
Fore
SplineSet
163 494.5 m 128,-1,1
 137 588 137 588 137 695 c 128,-1,2
 137 802 137 802 164.5 899.5 c 128,-1,3
 192 997 192 997 243 1079.5 c 128,-1,4
 294 1162 294 1162 365 1228 c 128,-1,5
 436 1294 436 1294 523 1340 c 0,6,7
 705 1436 705 1436 920 1436 c 0,8,9
 1236 1436 1236 1436 1443 1260 c 1,10,-1
 1339 1118 l 1,11,12
 1164 1270 1164 1270 902 1270 c 0,13,14
 665 1270 665 1270 500 1114 c 0,15,16
 333 957 333 957 333 723 c 0,17,18
 333 468 333 468 498 307 c 0,19,20
 662 146 662 146 917 146 c 0,21,22
 1110 146 1110 146 1262 259 c 0,23,24
 1305 291 1305 291 1335 326 c 1,25,-1
 1335 479 l 1,26,-1
 844 479 l 1,27,-1
 844 647 l 1,28,-1
 1520 647 l 1,29,-1
 1520 0 l 1,30,-1
 1335 0 l 1,31,-1
 1335 137 l 1,32,33
 1221 34 1221 34 1030 -6 c 0,34,35
 960 -20 960 -20 867 -20 c 128,-1,36
 774 -20 774 -20 678 3.5 c 128,-1,37
 582 27 582 27 500 71.5 c 128,-1,38
 418 116 418 116 350.5 179 c 128,-1,39
 283 242 283 242 236 321.5 c 128,-1,0
 189 401 189 401 163 494.5 c 128,-1,1
EndSplineSet
Position2: "'cpsp' Capital Spacing in Latin lookup 0 subtable" dx=16 dy=0 dh=32 dv=0
EndChar

StartChar: H
Encoding: 72 72 62
Width: 1607
GlyphClass: 2
Flags: W
LayerCount: 2
Fore
SplineSet
184 1416 m 1,0,-1
 369 1416 l 1,1,-1
 369 647 l 1,2,-1
 1238 647 l 1,3,-1
 1238 1416 l 1,4,-1
 1423 1416 l 1,5,-1
 1423 0 l 1,6,-1
 1238 0 l 1,7,-1
 1238 479 l 1,8,-1
 369 479 l 1,9,-1
 369 0 l 1,10,-1
 184 0 l 1,11,-1
 184 1416 l 1,0,-1
EndSplineSet
Position2: "'cpsp' Capital Spacing in Latin lookup 0 subtable" dx=16 dy=0 dh=32 dv=0
EndChar

StartChar: I
Encoding: 73 73 63
Width: 553
GlyphClass: 2
Flags: W
LayerCount: 2
Fore
SplineSet
184 1416 m 1,0,-1
 369 1416 l 1,1,-1
 369 0 l 1,2,-1
 184 0 l 1,3,-1
 184 1416 l 1,0,-1
EndSplineSet
Position2: "'cpsp' Capital Spacing in Latin lookup 0 subtable" dx=16 dy=0 dh=32 dv=0
EndChar

StartChar: J
Encoding: 74 74 64
Width: 1190
GlyphClass: 2
Flags: W
LayerCount: 2
Fore
SplineSet
540 146 m 0,0,1
 821 146 821 146 821 502 c 2,2,-1
 821 1416 l 1,3,-1
 1006 1416 l 1,4,-1
 1006 522 l 2,5,6
 1006 130 1006 130 735 18 c 0,7,8
 643 -20 643 -20 531.5 -20 c 128,-1,9
 420 -20 420 -20 340.5 20 c 128,-1,10
 261 60 261 60 206 128 c 1,11,12
 90 268 90 268 90 473 c 1,13,-1
 270 498 l 1,14,15
 270 354 270 354 338 256 c 0,16,17
 413 146 413 146 540 146 c 0,0,1
EndSplineSet
Position2: "'cpsp' Capital Spacing in Latin lookup 0 subtable" dx=16 dy=0 dh=32 dv=0
EndChar

StartChar: K
Encoding: 75 75 65
Width: 1404
GlyphClass: 2
Flags: W
LayerCount: 2
Fore
SplineSet
184 1416 m 1,0,-1
 374 1416 l 1,1,-1
 374 711 l 1,2,-1
 1109 1416 l 1,3,-1
 1348 1416 l 1,4,-1
 578 682 l 1,5,-1
 1381 0 l 1,6,-1
 1089 0 l 1,7,-1
 374 625 l 1,8,-1
 374 0 l 1,9,-1
 184 0 l 1,10,-1
 184 1416 l 1,0,-1
EndSplineSet
Position2: "'cpsp' Capital Spacing in Latin lookup 0 subtable" dx=16 dy=0 dh=32 dv=0
EndChar

StartChar: L
Encoding: 76 76 66
Width: 1208
GlyphClass: 2
Flags: W
LayerCount: 2
Fore
SplineSet
184 1416 m 1,0,-1
 369 1416 l 1,1,-1
 369 168 l 1,2,-1
 1141 168 l 1,3,-1
 1141 0 l 1,4,-1
 184 0 l 1,5,-1
 184 1416 l 1,0,-1
EndSplineSet
Position2: "'cpsp' Capital Spacing in Latin lookup 0 subtable" dx=16 dy=0 dh=32 dv=0
EndChar

StartChar: M
Encoding: 77 77 67
Width: 1947
GlyphClass: 2
Flags: W
LayerCount: 2
Fore
SplineSet
287 1415 m 1,0,-1
 342 1415 l 1,1,-1
 967 730 l 1,2,-1
 1591 1415 l 1,3,-1
 1650 1415 l 1,4,-1
 1770 0 l 1,5,-1
 1589 0 l 1,6,-1
 1498 1065 l 1,7,-1
 969 479 l 1,8,-1
 949 479 l 1,9,-1
 436 1056 l 1,10,-1
 356 0 l 1,11,-1
 177 0 l 1,12,-1
 287 1415 l 1,0,-1
EndSplineSet
Position2: "'cpsp' Capital Spacing in Latin lookup 0 subtable" dx=16 dy=0 dh=32 dv=0
EndChar

StartChar: N
Encoding: 78 78 68
Width: 1607
GlyphClass: 2
Flags: W
LayerCount: 2
Fore
SplineSet
184 1416 m 1,0,-1
 346 1416 l 1,1,-1
 1258 298 l 1,2,-1
 1258 1416 l 1,3,-1
 1423 1416 l 1,4,-1
 1423 0 l 1,5,-1
 1268 0 l 1,6,-1
 349 1126 l 1,7,-1
 349 0 l 1,8,-1
 184 0 l 1,9,-1
 184 1416 l 1,0,-1
EndSplineSet
Position2: "'cpsp' Capital Spacing in Latin lookup 0 subtable" dx=16 dy=0 dh=32 dv=0
EndChar

StartChar: O
Encoding: 79 79 69
Width: 1822
GlyphClass: 2
Flags: W
LayerCount: 2
Fore
SplineSet
197.5 405 m 128,-1,1
 137 536 137 536 137 669 c 128,-1,2
 137 802 137 802 164.5 899.5 c 128,-1,3
 192 997 192 997 243 1079.5 c 128,-1,4
 294 1162 294 1162 365 1228 c 128,-1,5
 436 1294 436 1294 523 1340 c 0,6,7
 705 1436 705 1436 920 1436 c 0,8,9
 1126 1436 1126 1436 1304 1344 c 0,10,11
 1477 1254 1477 1254 1580 1094 c 1,12,13
 1685 927 1685 927 1685 723 c 0,14,15
 1685 400 1685 400 1457 188 c 0,16,17
 1314 55 1314 55 1112 5 c 0,18,19
 1011 -20 1011 -20 878 -20 c 128,-1,20
 745 -20 745 -20 606 32.5 c 128,-1,21
 467 85 467 85 362.5 179.5 c 128,-1,0
 258 274 258 274 197.5 405 c 128,-1,1
377.5 941 m 128,-1,23
 333 841 333 841 333 721 c 128,-1,24
 333 601 333 601 379 496 c 128,-1,25
 425 391 425 391 505 313 c 0,26,27
 676 146 676 146 920 146 c 0,28,29
 1157 146 1157 146 1322 302 c 0,30,31
 1489 460 1489 460 1489 693 c 0,32,33
 1489 851 1489 851 1409 986 c 0,34,35
 1334 1114 1334 1114 1198 1192 c 0,36,37
 1064 1270 1064 1270 924 1270 c 128,-1,38
 784 1270 784 1270 680.5 1228.5 c 128,-1,39
 577 1187 577 1187 499.5 1114 c 128,-1,22
 422 1041 422 1041 377.5 941 c 128,-1,23
EndSplineSet
Position2: "'cpsp' Capital Spacing in Latin lookup 0 subtable" dx=16 dy=0 dh=32 dv=0
EndChar

StartChar: P
Encoding: 80 80 70
Width: 1470
GlyphClass: 2
Flags: W
LayerCount: 2
Fore
SplineSet
184 1416 m 1,0,-1
 745 1416 l 2,1,2
 1029 1416 1029 1416 1199 1288 c 0,3,4
 1383 1150 1383 1150 1383 891 c 0,5,6
 1383 621 1383 621 1189 461 c 0,7,8
 1005 310 1005 310 717 310 c 2,9,-1
 369 310 l 1,10,-1
 369 0 l 1,11,-1
 184 0 l 1,12,-1
 184 1416 l 1,0,-1
742 478 m 2,13,14
 946 478 946 478 1064 580 c 0,15,16
 1187 686 1187 686 1187 879 c 0,17,18
 1187 1064 1187 1064 1049 1161 c 0,19,20
 925 1248 925 1248 716 1248 c 2,21,-1
 369 1248 l 1,22,-1
 369 478 l 1,23,-1
 742 478 l 2,13,14
EndSplineSet
Position2: "'cpsp' Capital Spacing in Latin lookup 0 subtable" dx=16 dy=0 dh=32 dv=0
EndChar

StartChar: Q
Encoding: 81 81 71
Width: 1823
GlyphClass: 2
Flags: W
LayerCount: 2
Fore
SplineSet
188 427 m 128,-1,1
 137 549 137 549 137 675.5 c 128,-1,2
 137 802 137 802 164.5 899.5 c 128,-1,3
 192 997 192 997 243 1079.5 c 128,-1,4
 294 1162 294 1162 365 1228 c 128,-1,5
 436 1294 436 1294 523 1340 c 0,6,7
 705 1436 705 1436 920 1436 c 0,8,9
 1126 1436 1126 1436 1304 1344 c 0,10,11
 1477 1254 1477 1254 1580 1094 c 1,12,13
 1685 927 1685 927 1685 723 c 0,14,15
 1685 444 1685 444 1510 242 c 1,16,17
 1339 47 1339 47 1068 -4 c 1,18,-1
 1419 -246 l 1,19,-1
 1219 -329 l 1,20,-1
 798 -13 l 1,21,22
 517 19 517 19 328 213 c 0,23,0
 239 305 239 305 188 427 c 128,-1,1
377.5 941 m 128,-1,25
 333 841 333 841 333 721 c 128,-1,26
 333 601 333 601 379 496 c 128,-1,27
 425 391 425 391 505 313 c 0,28,29
 676 146 676 146 920 146 c 0,30,31
 1157 146 1157 146 1322 302 c 0,32,33
 1489 460 1489 460 1489 693 c 0,34,35
 1489 851 1489 851 1409 986 c 0,36,37
 1334 1114 1334 1114 1198 1192 c 0,38,39
 1064 1270 1064 1270 924 1270 c 128,-1,40
 784 1270 784 1270 680.5 1228.5 c 128,-1,41
 577 1187 577 1187 499.5 1114 c 128,-1,24
 422 1041 422 1041 377.5 941 c 128,-1,25
EndSplineSet
Position2: "'cpsp' Capital Spacing in Latin lookup 0 subtable" dx=16 dy=0 dh=32 dv=0
EndChar

StartChar: R
Encoding: 82 82 72
Width: 1550
GlyphClass: 2
Flags: W
LayerCount: 2
Fore
SplineSet
1423 980 m 0,0,1
 1423 665 1423 665 1133 545 c 1,2,-1
 1402 0 l 1,3,-1
 1187 0 l 1,4,-1
 944 493 l 1,5,6
 845 478 845 478 737 478 c 2,7,-1
 369 478 l 1,8,-1
 369 0 l 1,9,-1
 184 0 l 1,10,-1
 184 1416 l 1,11,-1
 765 1416 l 2,12,13
 1079 1416 1079 1416 1234 1330 c 0,14,15
 1423 1226 1423 1226 1423 980 c 0,0,1
762 646 m 2,16,17
 986 646 986 646 1094 708 c 0,18,19
 1227 785 1227 785 1227 968 c 0,20,21
 1227 1206 1227 1206 919 1238 c 0,22,23
 830 1248 830 1248 736 1248 c 2,24,-1
 369 1248 l 1,25,-1
 369 646 l 1,26,-1
 762 646 l 2,16,17
EndSplineSet
Position2: "'cpsp' Capital Spacing in Latin lookup 0 subtable" dx=16 dy=0 dh=32 dv=0
EndChar

StartChar: S
Encoding: 83 83 73
Width: 1459
GlyphClass: 2
Flags: W
LayerCount: 2
Fore
SplineSet
223 319 m 1,0,1
 409 199 409 199 601 161 c 0,2,3
 666 148 666 148 733 148 c 128,-1,4
 800 148 800 148 871.5 160.5 c 128,-1,5
 943 173 943 173 998 202 c 0,6,7
 1122 268 1122 268 1122 405 c 0,8,9
 1122 546 1122 546 914 602 c 0,10,11
 853 618 853 618 784 631 c 2,12,-1
 641 656 l 2,13,14
 368 703 368 703 260 794 c 0,15,16
 160 877 160 877 160 1018 c 0,17,18
 160 1210 160 1210 344 1329 c 0,19,20
 508 1436 508 1436 731 1436 c 0,21,22
 945 1436 945 1436 1116 1366 c 0,23,24
 1177 1342 1177 1342 1243 1306 c 1,25,-1
 1175 1143 l 1,26,27
 1030 1230 1030 1230 833 1256 c 0,28,29
 771 1265 771 1265 713 1265 c 0,30,31
 580 1265 580 1265 478 1214 c 0,32,33
 359 1154 359 1154 359 1048 c 0,34,35
 359 936 359 936 510 884 c 0,36,37
 578 860 578 860 664 845 c 2,38,-1
 842 814 l 1,39,40
 1067 772 1067 772 1154 719 c 128,-1,41
 1241 666 1241 666 1282.5 600.5 c 128,-1,42
 1324 535 1324 535 1324 426.5 c 128,-1,43
 1324 318 1324 318 1273 232 c 128,-1,44
 1222 146 1222 146 1137 90 c 0,45,46
 971 -21 971 -21 714 -21 c 0,47,48
 474 -21 474 -21 263 83 c 0,49,50
 194 117 194 117 135 161 c 1,51,-1
 223 319 l 1,0,1
EndSplineSet
Position2: "'cpsp' Capital Spacing in Latin lookup 0 subtable" dx=16 dy=0 dh=32 dv=0
EndChar

StartChar: T
Encoding: 84 84 74
Width: 1383
GlyphClass: 2
Flags: W
LayerCount: 2
Fore
SplineSet
599 1248 m 1,0,-1
 67 1248 l 1,1,-1
 67 1416 l 1,2,-1
 1316 1416 l 1,3,-1
 1316 1248 l 1,4,-1
 784 1248 l 1,5,-1
 784 0 l 1,6,-1
 599 0 l 1,7,-1
 599 1248 l 1,0,-1
EndSplineSet
Position2: "'cpsp' Capital Spacing in Latin lookup 0 subtable" dx=16 dy=0 dh=32 dv=0
EndChar

StartChar: U
Encoding: 85 85 75
Width: 1592
GlyphClass: 2
Flags: W
LayerCount: 2
Fore
SplineSet
153 1416 m 1,0,-1
 338 1416 l 1,1,-1
 338 683 l 2,2,3
 338 297 338 297 595 184 c 0,4,5
 683 146 683 146 803 146 c 128,-1,6
 923 146 923 146 1007.5 181 c 128,-1,7
 1092 216 1092 216 1147 282 c 0,8,9
 1254 409 1254 409 1254 653 c 2,10,-1
 1254 1416 l 1,11,-1
 1439 1416 l 1,12,-1
 1439 683 l 2,13,14
 1439 174 1439 174 1072 28 c 0,15,16
 950 -20 950 -20 790 -20 c 128,-1,17
 630 -20 630 -20 511.5 26.5 c 128,-1,18
 393 73 393 73 314 160 c 0,19,20
 153 336 153 336 153 653 c 2,21,-1
 153 1416 l 1,0,-1
EndSplineSet
Position2: "'cpsp' Capital Spacing in Latin lookup 0 subtable" dx=16 dy=0 dh=32 dv=0
EndChar

StartChar: V
Encoding: 86 86 76
Width: 1463
GlyphClass: 2
Flags: W
LayerCount: 2
Fore
SplineSet
25 1416 m 1,0,-1
 232 1416 l 1,1,-1
 600 603 l 2,2,3
 625 547 625 547 646 492 c 0,4,5
 694 369 694 369 720 291 c 1,6,-1
 729 291 l 1,7,8
 743 336 743 336 760 382 c 2,9,-1
 796 480 l 1,10,11
 817 534 817 534 843 590 c 2,12,-1
 1217 1416 l 1,13,-1
 1413 1416 l 1,14,-1
 763 -20 l 1,15,-1
 675 -20 l 1,16,-1
 25 1416 l 1,0,-1
EndSplineSet
Position2: "'cpsp' Capital Spacing in Latin lookup 0 subtable" dx=16 dy=0 dh=32 dv=0
EndChar

StartChar: W
Encoding: 87 87 77
Width: 2118
GlyphClass: 2
Flags: W
LayerCount: 2
Fore
SplineSet
47 1416 m 1,0,-1
 262 1416 l 1,1,2
 574 641 574 641 592 595 c 1,3,4
 633 483 633 483 646 443 c 1,5,6
 646 443 646 443 671 372 c 1,7,-1
 680 372 l 1,8,9
 693 419 693 419 708 468 c 2,10,11
 708 468 708 468 742 574 c 0,12,13
 761 632 761 632 784 695 c 2,14,-1
 1043 1416 l 1,15,-1
 1100 1416 l 1,16,-1
 1367 710 l 1,17,-1
 1482 372 l 1,18,-1
 1491 372 l 1,19,-1
 1562 600 l 2,20,21
 1581 660 1581 660 1601 713 c 2,22,-1
 1856 1416 l 1,23,-1
 2071 1416 l 1,24,-1
 1513 -20 l 1,25,-1
 1456 -20 l 1,26,-1
 1152 782 l 2,27,28
 1139 814 1139 814 1126 855 c 2,29,-1
 1072 1020 l 1,30,-1
 1066 1020 l 1,31,-1
 1040 933 l 2,32,33
 1029 896 1029 896 1016 856 c 1,34,-1
 702 -20 l 1,35,-1
 645 -20 l 1,36,-1
 47 1416 l 1,0,-1
EndSplineSet
Position2: "'cpsp' Capital Spacing in Latin lookup 0 subtable" dx=16 dy=0 dh=32 dv=0
EndChar

StartChar: X
Encoding: 88 88 78
Width: 1443
GlyphClass: 2
Flags: W
LayerCount: 2
Fore
SplineSet
597 714 m 1,0,-1
 47 1416 l 1,1,-1
 290 1416 l 1,2,-1
 718 869 l 1,3,-1
 1143 1416 l 1,4,-1
 1364 1416 l 1,5,-1
 829 728 l 1,6,-1
 1400 0 l 1,7,-1
 1157 0 l 1,8,-1
 708 572 l 1,9,-1
 264 0 l 1,10,-1
 43 0 l 1,11,-1
 597 714 l 1,0,-1
EndSplineSet
Position2: "'cpsp' Capital Spacing in Latin lookup 0 subtable" dx=16 dy=0 dh=32 dv=0
EndChar

StartChar: Y
Encoding: 89 89 79
Width: 1291
GlyphClass: 2
Flags: W
LayerCount: 2
Fore
SplineSet
559 604 m 1,0,-1
 37 1416 l 1,1,-1
 240 1416 l 1,2,-1
 653 769 l 1,3,-1
 1063 1416 l 1,4,-1
 1254 1416 l 1,5,-1
 744 607 l 1,6,-1
 744 0 l 1,7,-1
 559 0 l 1,8,-1
 559 604 l 1,0,-1
EndSplineSet
Position2: "'cpsp' Capital Spacing in Latin lookup 0 subtable" dx=16 dy=0 dh=32 dv=0
EndChar

StartChar: Z
Encoding: 90 90 80
Width: 1318
GlyphClass: 2
Flags: W
LayerCount: 2
Fore
SplineSet
107 168 m 1,0,-1
 980 1249 l 1,1,-1
 107 1249 l 1,2,-1
 107 1417 l 1,3,-1
 1211 1417 l 1,4,-1
 1211 1249 l 1,5,-1
 338 168 l 1,6,-1
 1211 168 l 1,7,-1
 1211 0 l 1,8,-1
 107 0 l 1,9,-1
 107 168 l 1,0,-1
EndSplineSet
Position2: "'cpsp' Capital Spacing in Latin lookup 0 subtable" dx=16 dy=0 dh=32 dv=0
EndChar

StartChar: bracketleft
Encoding: 91 91 81
Width: 733
GlyphClass: 2
Flags: W
LayerCount: 2
Fore
SplineSet
193 1616 m 1,0,-1
 610 1616 l 1,1,-1
 610 1448 l 1,2,-1
 360 1448 l 1,3,-1
 360 -162 l 1,4,-1
 610 -162 l 1,5,-1
 610 -331 l 1,6,-1
 193 -331 l 1,7,-1
 193 1616 l 1,0,-1
EndSplineSet
EndChar

StartChar: backslash
Encoding: 92 92 82
Width: 997
GlyphClass: 2
Flags: W
LayerCount: 2
Fore
SplineSet
73 1561 m 1,0,-1
 256 1561 l 1,1,-1
 924 -467 l 1,2,-1
 741 -467 l 1,3,-1
 73 1561 l 1,0,-1
EndSplineSet
EndChar

StartChar: asciicircum
Encoding: 94 94 84
Width: 1288
GlyphClass: 2
Flags: W
LayerCount: 2
Fore
SplineSet
65 722 m 1,0,-1
 639 1436 l 1,1,-1
 1223 723 l 1,2,-1
 1116 625 l 1,3,-1
 633 1156 l 1,4,-1
 176 632 l 1,5,-1
 65 722 l 1,0,-1
EndSplineSet
EndChar

StartChar: underscore
Encoding: 95 95 85
Width: 1236
GlyphClass: 2
Flags: W
LayerCount: 2
Fore
SplineSet
1129 0 m 1,0,-1
 1129 -154 l 1,1,-1
 107 -154 l 1,2,-1
 107 0 l 1,3,-1
 1129 0 l 1,0,-1
EndSplineSet
EndChar

StartChar: grave
Encoding: 96 96 86
Width: 591
GlyphClass: 2
Flags: W
LayerCount: 2
Fore
SplineSet
60 1408 m 1,0,-1
 174 1525 l 1,1,-1
 507 1239 l 1,2,-1
 416 1148 l 1,3,-1
 60 1408 l 1,0,-1
EndSplineSet
EndChar

StartChar: a
Encoding: 97 97 87
Width: 1201
GlyphClass: 2
Flags: W
LayerCount: 2
Fore
SplineSet
837 128 m 1,0,1
 654 -20 654 -20 452 -20 c 0,2,3
 311 -20 311 -20 215 54 c 0,4,5
 112 134 112 134 112 263 c 0,6,7
 112 529 112 529 466 618 c 0,8,9
 609 654 609 654 809 658 c 1,10,11
 803 821 803 821 650 850 c 0,12,13
 600 860 600 860 556 860 c 128,-1,14
 512 860 512 860 478 856 c 128,-1,15
 444 852 444 852 408 845 c 0,16,17
 329 830 329 830 274 808 c 1,18,-1
 221 950 l 1,19,20
 361 1020 361 1020 559 1020 c 0,21,22
 868 1020 868 1020 966 823 c 0,23,24
 999 755 999 755 999 661 c 2,25,-1
 999 342 l 2,26,27
 999 240 999 240 1014 206 c 0,28,29
 1041 141 1041 141 1109 123 c 1,30,-1
 1081 0 l 1,31,32
 894 -22 894 -22 837 128 c 1,0,1
343 383.5 m 128,-1,34
 302 341 302 341 302 292 c 128,-1,35
 302 243 302 243 316 217.5 c 128,-1,36
 330 192 330 192 353 175 c 0,37,38
 400 140 400 140 463 140 c 128,-1,39
 526 140 526 140 576.5 153.5 c 128,-1,40
 627 167 627 167 670 189 c 0,41,42
 754 231 754 231 809 293 c 1,43,-1
 809 509 l 1,44,45
 571 497 571 497 477.5 461.5 c 128,-1,33
 384 426 384 426 343 383.5 c 128,-1,34
EndSplineSet
EndChar

StartChar: b
Encoding: 98 98 88
Width: 1269
GlyphClass: 2
Flags: W
LayerCount: 2
Fore
SplineSet
374 919 m 1,0,1
 509 1020 509 1020 698 1020 c 0,2,3
 913 1020 913 1020 1045 878 c 0,4,5
 1174 740 1174 740 1174 520 c 0,6,7
 1174 281 1174 281 986 126 c 1,8,9
 807 -20 807 -20 550 -20 c 0,10,11
 437 -20 437 -20 326 -4 c 128,-1,12
 215 12 215 12 184 20 c 1,13,-1
 184 1561 l 1,14,-1
 374 1561 l 1,15,-1
 374 919 l 1,0,1
374 174 m 1,16,17
 450 140 450 140 552.5 140 c 128,-1,18
 655 140 655 140 731 165 c 128,-1,19
 807 190 807 190 863 237 c 0,20,21
 984 339 984 339 984 508 c 0,22,23
 984 657 984 657 906 755 c 1,24,25
 821 860 821 860 685 860 c 0,26,27
 538 860 538 860 432 782 c 0,28,29
 396 756 396 756 374 722 c 1,30,-1
 374 174 l 1,16,17
EndSplineSet
EndChar

StartChar: c
Encoding: 99 99 89
Width: 990
GlyphClass: 2
Flags: W
LayerCount: 2
Fore
SplineSet
921 214 m 1,0,-1
 956 73 l 1,1,2
 831 -20 831 -20 588 -20 c 0,3,4
 356 -20 356 -20 224 122 c 0,5,6
 95 260 95 260 95 498 c 0,7,8
 95 720 95 720 240 870 c 1,9,10
 387 1020 387 1020 607 1020 c 0,11,12
 805 1020 805 1020 929 929 c 1,13,-1
 863 780 l 1,14,15
 750 864 750 864 589 864 c 0,16,17
 451 864 451 864 366 758 c 0,18,19
 285 658 285 658 285 510 c 0,20,21
 285 351 285 351 370 248 c 0,22,23
 459 140 459 140 615 140 c 128,-1,24
 771 140 771 140 921 214 c 1,0,-1
EndSplineSet
EndChar

StartChar: d
Encoding: 100 100 90
Width: 1269
GlyphClass: 2
Flags: W
LayerCount: 2
Fore
SplineSet
911 95 m 1,0,1
 770 -20 770 -20 571 -20 c 0,2,3
 356 -20 356 -20 224 122 c 0,4,5
 95 260 95 260 95 480 c 0,6,7
 95 719 95 719 283 874 c 1,8,9
 462 1020 462 1020 719 1020 c 0,10,11
 820 1020 820 1020 895 1005 c 1,12,-1
 895 1561 l 1,13,-1
 1085 1561 l 1,14,-1
 1085 0 l 1,15,-1
 940 0 l 1,16,-1
 911 95 l 1,0,1
895 836 m 1,17,18
 790 860 790 860 702 860 c 128,-1,19
 614 860 614 860 538 835 c 128,-1,20
 462 810 462 810 406 763 c 0,21,22
 285 661 285 661 285 492 c 0,23,24
 285 344 285 344 363 245 c 0,25,26
 446 140 446 140 584 140 c 0,27,28
 740 140 740 140 842 218 c 0,29,30
 874 243 874 243 895 276 c 1,31,-1
 895 836 l 1,17,18
EndSplineSet
EndChar

StartChar: e
Encoding: 101 101 91
Width: 1106
GlyphClass: 2
Flags: W
LayerCount: 2
Fore
SplineSet
979.5 778.5 m 128,-1,1
 1010 698 1010 698 1010 609 c 128,-1,2
 1010 520 1010 520 990 400 c 1,3,-1
 294 400 l 1,4,5
 316 279 316 279 392 209.5 c 128,-1,6
 468 140 468 140 607 140 c 0,7,8
 793 140 793 140 948 208 c 1,9,-1
 980 65 l 1,10,11
 877 5 877 5 686 -14 c 0,12,13
 633 -20 633 -20 548 -20 c 128,-1,14
 463 -20 463 -20 370 14 c 128,-1,15
 277 48 277 48 216 114 c 0,16,17
 95 245 95 245 95 498 c 0,18,19
 95 720 95 720 240 870 c 1,20,21
 387 1020 387 1020 607 1020 c 0,22,23
 788 1020 788 1020 896 912 c 0,24,0
 949 859 949 859 979.5 778.5 c 128,-1,1
829 547 m 1,25,-1
 833 601 l 1,26,27
 833 784 833 784 696 844 c 0,28,29
 650 864 650 864 586 864 c 128,-1,30
 522 864 522 864 468.5 839 c 128,-1,31
 415 814 415 814 376 771 c 0,32,33
 296 683 296 683 286 547 c 1,34,-1
 829 547 l 1,25,-1
EndSplineSet
EndChar

StartChar: f
Encoding: 102 102 92
Width: 776
GlyphClass: 2
Flags: W
LayerCount: 2
Fore
SplineSet
832 1355 m 1,0,1
 738 1404 738 1404 647 1404 c 128,-1,2
 556 1404 556 1404 510.5 1376 c 128,-1,3
 465 1348 465 1348 440 1300 c 0,4,5
 395 1216 395 1216 395 1050 c 2,6,-1
 395 1000 l 1,7,-1
 781 1000 l 1,8,-1
 781 846 l 1,9,-1
 395 846 l 1,10,-1
 395 0 l 1,11,-1
 204 0 l 1,12,-1
 204 846 l 1,13,-1
 19 846 l 1,14,-1
 19 1000 l 1,15,-1
 204 1000 l 1,16,-1
 204 1038 l 2,17,18
 204 1412 204 1412 447 1522 c 0,19,20
 531 1560 531 1560 619 1560 c 0,21,22
 764 1560 764 1560 877 1506 c 1,23,-1
 832 1355 l 1,0,1
EndSplineSet
EndChar

StartChar: g
Encoding: 103 103 93
Width: 1229
GlyphClass: 2
Flags: W
LayerCount: 2
Fore
SplineSet
371 413 m 1,0,1
 323 356 323 356 323 306.5 c 128,-1,2
 323 257 323 257 357.5 236 c 128,-1,3
 392 215 392 215 448.5 202 c 128,-1,4
 505 189 505 189 577.5 180.5 c 128,-1,5
 650 172 650 172 725 162 c 128,-1,6
 800 152 800 152 872.5 136.5 c 128,-1,7
 945 121 945 121 1002 94 c 1,8,9
 1127 32 1127 32 1127 -84 c 0,10,11
 1127 -260 1127 -260 970 -378 c 1,12,13
 822 -487 822 -487 627 -487 c 0,14,15
 443 -487 443 -487 313 -415 c 0,16,17
 162 -331 162 -331 162 -179 c 0,18,19
 162 -83 162 -83 236 12 c 0,20,21
 258 40 258 40 282 62 c 1,22,23
 137 118 137 118 137 241 c 0,24,25
 137 398 137 398 269 515 c 1,26,27
 223 586 223 586 223 670.5 c 128,-1,28
 223 755 223 755 258.5 819.5 c 128,-1,29
 294 884 294 884 353 928 c 0,30,31
 474 1020 474 1020 642.5 1020 c 128,-1,32
 811 1020 811 1020 928 928 c 1,33,34
 994 991 994 991 1134 1014 c 0,35,36
 1175 1020 1175 1020 1212 1020 c 1,37,-1
 1204 865 l 1,38,39
 1085 852 1085 852 1021 818 c 1,40,41
 1055 752 1055 752 1055 676 c 128,-1,42
 1055 600 1055 600 1019.5 536 c 128,-1,43
 984 472 984 472 925 428 c 0,44,45
 804 338 804 338 644.5 338 c 128,-1,46
 485 338 485 338 371 413 c 1,0,1
419 764 m 0,47,48
 400 728 400 728 400 680 c 128,-1,49
 400 632 400 632 419.5 595.5 c 128,-1,50
 439 559 439 559 473 534 c 0,51,52
 540 486 540 486 645 486 c 0,53,54
 801 486 801 486 859 592 c 0,55,56
 878 627 878 627 878 675 c 128,-1,57
 878 723 878 723 858.5 760 c 128,-1,58
 839 797 839 797 805 822 c 0,59,60
 738 871 738 871 633 871 c 0,61,62
 477 871 477 871 419 764 c 0,47,48
421 26 m 1,63,64
 352 -50 352 -50 352 -155 c 0,65,66
 352 -240 352 -240 451 -288 c 1,67,68
 534 -327 534 -327 614 -327 c 128,-1,69
 694 -327 694 -327 746 -316.5 c 128,-1,70
 798 -306 798 -306 840 -283 c 0,71,72
 937 -231 937 -231 937 -137 c 0,73,74
 937 -48 937 -48 765 -18 c 0,75,76
 691 -5 691 -5 584.5 5.5 c 128,-1,77
 478 16 478 16 421 26 c 1,63,64
EndSplineSet
EndChar

StartChar: h
Encoding: 104 104 94
Width: 1337
GlyphClass: 2
Flags: W
LayerCount: 2
Fore
SplineSet
374 913 m 1,0,1
 522 1020 522 1020 718 1020 c 0,2,3
 1174 1020 1174 1020 1174 519 c 2,4,-1
 1174 0 l 1,5,-1
 985 0 l 1,6,-1
 984 507 l 2,7,8
 984 680 984 680 924 764 c 1,9,10
 857 860 857 860 705 860 c 0,11,12
 542 860 542 860 432 780 c 0,13,14
 396 755 396 755 374 722 c 1,15,-1
 374 0 l 1,16,-1
 184 0 l 1,17,-1
 184 1562 l 1,18,-1
 374 1561 l 1,19,-1
 374 913 l 1,0,1
EndSplineSet
EndChar

StartChar: i
Encoding: 105 105 95
Width: 558
GlyphClass: 2
Flags: W
LayerCount: 2
Fore
SplineSet
369 1321 m 128,-1,1
 335 1287 335 1287 279 1287 c 128,-1,2
 223 1287 223 1287 189 1321 c 128,-1,3
 155 1355 155 1355 155 1411 c 128,-1,4
 155 1467 155 1467 189 1500.5 c 128,-1,5
 223 1534 223 1534 279 1534 c 128,-1,6
 335 1534 335 1534 369 1500.5 c 128,-1,7
 403 1467 403 1467 403 1411 c 128,-1,0
 403 1355 403 1355 369 1321 c 128,-1,1
184 1000 m 1,8,-1
 374 1000 l 1,9,-1
 374 0 l 1,10,-1
 184 0 l 1,11,-1
 184 1000 l 1,8,-1
EndSplineSet
EndChar

StartChar: j
Encoding: 106 106 96
Width: 558
GlyphClass: 2
Flags: W
LayerCount: 2
Fore
SplineSet
369 1321 m 128,-1,1
 335 1287 335 1287 279 1287 c 128,-1,2
 223 1287 223 1287 189 1321 c 128,-1,3
 155 1355 155 1355 155 1411 c 128,-1,4
 155 1467 155 1467 189 1500.5 c 128,-1,5
 223 1534 223 1534 279 1534 c 128,-1,6
 335 1534 335 1534 369 1500.5 c 128,-1,7
 403 1467 403 1467 403 1411 c 128,-1,0
 403 1355 403 1355 369 1321 c 128,-1,1
184 1000 m 1,8,-1
 374 1000 l 1,9,-1
 374 -65 l 2,10,11
 374 -307 374 -307 244 -417 c 0,12,13
 199 -455 199 -455 135 -485 c 1,14,-1
 55 -356 l 1,15,16
 126 -313 126 -313 154 -257 c 0,17,18
 184 -198 184 -198 184 -85 c 2,19,-1
 184 1000 l 1,8,-1
EndSplineSet
EndChar

StartChar: k
Encoding: 107 107 97
Width: 1112
GlyphClass: 2
Flags: W
LayerCount: 2
Fore
SplineSet
184 1561 m 1,0,-1
 374 1561 l 1,1,-1
 374 560 l 1,2,-1
 823 1000 l 1,3,-1
 1045 1000 l 1,4,-1
 575 540 l 1,5,-1
 855 238 l 1,6,7
 944 144 944 144 1067 135 c 1,8,-1
 1038 0 l 1,9,10
 887 -21 887 -21 792 56 c 0,11,12
 763 80 763 80 735 111 c 2,13,-1
 374 501 l 1,14,-1
 374 0 l 1,15,-1
 184 0 l 1,16,-1
 184 1561 l 1,0,-1
EndSplineSet
EndChar

StartChar: l
Encoding: 108 108 98
Width: 556
GlyphClass: 2
Flags: W
LayerCount: 2
Fore
SplineSet
184 1561 m 1,0,-1
 374 1561 l 1,1,-1
 374 342 l 2,2,3
 374 240 374 240 388 206 c 0,4,5
 416 141 416 141 484 123 c 1,6,-1
 456 0 l 1,7,8
 301 -20 301 -20 235 82 c 0,9,10
 184 162 184 162 184 328 c 2,11,-1
 184 1561 l 1,0,-1
EndSplineSet
EndChar

StartChar: m
Encoding: 109 109 99
Width: 1902
GlyphClass: 2
Flags: W
LayerCount: 2
Fore
SplineSet
1047 716 m 1,0,1
 1064 631 1064 631 1064 519 c 2,2,-1
 1064 0 l 1,3,-1
 874 0 l 1,4,-1
 874 507 l 2,5,6
 874 686 874 686 843 746.5 c 128,-1,7
 812 807 812 807 766.5 833.5 c 128,-1,8
 721 860 721 860 663 860 c 128,-1,9
 605 860 605 860 565.5 850 c 128,-1,10
 526 840 526 840 490 822 c 1,11,12
 417 783 417 783 374 718 c 1,13,-1
 374 0 l 1,14,-1
 184 0 l 1,15,-1
 184 1000 l 1,16,-1
 329 1000 l 1,17,-1
 357 905 l 1,18,19
 487 1020 487 1020 658 1020 c 0,20,21
 897 1020 897 1020 993 866 c 1,22,23
 1081 968 1081 968 1225 1006 c 0,24,25
 1276 1020 1276 1020 1363.5 1020 c 128,-1,26
 1451 1020 1451 1020 1529 986 c 128,-1,27
 1607 952 1607 952 1654 888 c 1,28,29
 1739 769 1739 769 1739 519 c 2,30,-1
 1739 0 l 1,31,-1
 1549 0 l 1,32,-1
 1549 507 l 2,33,34
 1549 686 1549 686 1518 746.5 c 128,-1,35
 1487 807 1487 807 1441.5 833.5 c 128,-1,36
 1396 860 1396 860 1338 860 c 128,-1,37
 1280 860 1280 860 1240 849.5 c 128,-1,38
 1200 839 1200 839 1164 820 c 0,39,40
 1089 782 1089 782 1047 716 c 1,0,1
EndSplineSet
EndChar

StartChar: n
Encoding: 110 110 100
Width: 1337
GlyphClass: 2
Flags: W
LayerCount: 2
Fore
SplineSet
358 901 m 1,0,1
 515 1020 515 1020 718 1020 c 0,2,3
 1174 1020 1174 1020 1174 519 c 2,4,-1
 1174 0 l 1,5,-1
 984 0 l 1,6,-1
 984 507 l 2,7,8
 984 680 984 680 924 764 c 1,9,10
 857 860 857 860 705 860 c 0,11,12
 542 860 542 860 432 780 c 0,13,14
 396 755 396 755 374 722 c 1,15,-1
 374 0 l 1,16,-1
 184 0 l 1,17,-1
 184 1000 l 1,18,-1
 329 1000 l 1,19,-1
 358 901 l 1,0,1
EndSplineSet
EndChar

StartChar: o
Encoding: 111 111 101
Width: 1290
GlyphClass: 2
Flags: W
LayerCount: 2
Fore
SplineSet
95 491 m 0,0,1
 95 605 95 605 140 702 c 128,-1,2
 185 799 185 799 262 870 c 0,3,4
 425 1020 425 1020 654 1020 c 0,5,6
 885 1020 885 1020 1039 877 c 0,7,8
 1195 732 1195 732 1195 504 c 0,9,10
 1195 281 1195 281 1028 129 c 1,11,12
 866 -20 866 -20 636 -20 c 0,13,14
 402 -20 402 -20 250 122 c 0,15,16
 95 266 95 266 95 491 c 0,0,1
285 502 m 0,17,18
 285 424 285 424 313 357.5 c 128,-1,19
 341 291 341 291 390 242 c 0,20,21
 494 140 494 140 654 140 c 0,22,23
 803 140 803 140 904 242 c 1,24,25
 1005 342 1005 342 1005 493 c 0,26,27
 1005 651 1005 651 900 756 c 0,28,29
 796 860 796 860 636 860 c 0,30,31
 487 860 487 860 386 757 c 0,32,33
 285 655 285 655 285 502 c 0,17,18
EndSplineSet
EndChar

StartChar: p
Encoding: 112 112 102
Width: 1269
GlyphClass: 2
Flags: W
LayerCount: 2
Fore
SplineSet
602 -20 m 0,0,1
 480 -20 480 -20 374 2 c 1,2,-1
 374 -467 l 1,3,-1
 184 -467 l 1,4,-1
 184 1000 l 1,5,-1
 329 1000 l 1,6,-1
 357 904 l 1,7,8
 499 1020 499 1020 698 1020 c 0,9,10
 914 1020 914 1020 1045 884 c 0,11,12
 1174 749 1174 749 1174 530 c 0,13,14
 1174 285 1174 285 1010 131 c 0,15,16
 850 -20 850 -20 602 -20 c 0,0,1
374 173 m 1,17,18
 515 140 515 140 610 140 c 128,-1,19
 705 140 705 140 773 166.5 c 128,-1,20
 841 193 841 193 888 242 c 0,21,22
 984 342 984 342 984 518 c 0,23,24
 984 666 984 666 906 760 c 0,25,26
 823 860 823 860 685 860 c 0,27,28
 527 860 527 860 426 782 c 1,29,30
 394 756 394 756 374 723 c 1,31,-1
 374 173 l 1,17,18
EndSplineSet
EndChar

StartChar: q
Encoding: 113 113 103
Width: 1269
GlyphClass: 2
Flags: W
LayerCount: 2
Fore
SplineSet
895 80 m 1,0,1
 760 -21 760 -21 571 -21 c 0,2,3
 356 -21 356 -21 224 120 c 0,4,5
 95 259 95 259 95 479 c 0,6,7
 95 722 95 722 260 872 c 0,8,9
 422 1019 422 1019 668.5 1019 c 128,-1,10
 915 1019 915 1019 1085 942 c 1,11,-1
 1085 -468 l 1,12,-1
 895 -468 l 1,13,-1
 895 80 l 1,0,1
895 807 m 1,14,15
 796 859 796 859 682.5 859 c 128,-1,16
 569 859 569 859 500 834 c 128,-1,17
 431 809 431 809 384 762 c 0,18,19
 285 665 285 665 285 491 c 0,20,21
 285 343 285 343 363 244 c 0,22,23
 446 139 446 139 584 139 c 0,24,25
 731 139 731 139 838 217 c 0,26,27
 873 243 873 243 895 277 c 1,28,-1
 895 807 l 1,14,15
EndSplineSet
EndChar

StartChar: r
Encoding: 114 114 104
Width: 850
GlyphClass: 2
Flags: W
LayerCount: 2
Fore
SplineSet
758 791 m 1,0,1
 697 827 697 827 633.5 827 c 128,-1,2
 570 827 570 827 528.5 795 c 128,-1,3
 487 763 487 763 456 714 c 0,4,5
 395 620 395 620 374 494 c 1,6,-1
 374 0 l 1,7,-1
 184 0 l 1,8,-1
 184 1000 l 1,9,-1
 341 1000 l 1,10,-1
 373 817 l 1,11,12
 450 958 450 958 570 1004 c 0,13,14
 613 1020 613 1020 648.5 1020 c 128,-1,15
 684 1020 684 1020 701 1018.5 c 128,-1,16
 718 1017 718 1017 734 1014 c 0,17,18
 766 1006 766 1006 801 990 c 1,19,-1
 758 791 l 1,0,1
EndSplineSet
EndChar

StartChar: s
Encoding: 115 115 105
Width: 988
GlyphClass: 2
Flags: W
LayerCount: 2
Fore
SplineSet
144 245 m 1,0,1
 262 164 262 164 414 139 c 0,2,3
 462 131 462 131 504 131 c 128,-1,4
 546 131 546 131 583 139 c 128,-1,5
 620 147 620 147 650 165 c 0,6,7
 714 204 714 204 714 277 c 0,8,9
 714 341 714 341 620 384 c 0,10,11
 578 403 578 403 524 420 c 2,12,-1
 414 456 l 1,13,14
 273 504 273 504 219.5 546 c 128,-1,15
 166 588 166 588 140.5 633 c 128,-1,16
 115 678 115 678 115 744.5 c 128,-1,17
 115 811 115 811 146.5 863.5 c 128,-1,18
 178 916 178 916 231 951 c 0,19,20
 335 1020 335 1020 472 1020 c 0,21,22
 718 1020 718 1020 868 913 c 1,23,-1
 794 774 l 1,24,25
 640 869 640 869 479 869 c 0,26,27
 366 869 366 869 320 804 c 0,28,29
 305 782 305 782 305 749 c 128,-1,30
 305 716 305 716 330.5 692 c 128,-1,31
 356 668 356 668 398 649.5 c 128,-1,32
 440 631 440 631 494 614 c 2,33,-1
 604 580 l 1,34,35
 744 533 744 533 798 490 c 0,36,37
 903 406 903 406 903 290 c 0,38,39
 903 139 903 139 776 55 c 0,40,41
 663 -20 663 -20 489 -20 c 0,42,43
 307 -20 307 -20 160 52 c 0,44,45
 111 75 111 75 73 107 c 1,46,-1
 144 245 l 1,0,1
EndSplineSet
EndChar

StartChar: t
Encoding: 116 116 106
Width: 694
GlyphClass: 2
Flags: W
LayerCount: 2
Fore
SplineSet
165 846 m 1,0,-1
 58 846 l 1,1,-1
 58 970 l 1,2,-1
 304 1155 l 1,3,-1
 355 1155 l 1,4,-1
 355 1000 l 1,5,-1
 641 1000 l 1,6,-1
 641 846 l 1,7,-1
 355 846 l 1,8,-1
 355 442 l 2,9,10
 355 272 355 272 398 210 c 0,11,12
 441 149 441 149 566 135 c 1,13,-1
 537 0 l 1,14,15
 237 -38 237 -38 182 237 c 0,16,17
 165 319 165 319 165 414 c 2,18,-1
 165 846 l 1,0,-1
EndSplineSet
EndChar

StartChar: u
Encoding: 117 117 107
Width: 1295
GlyphClass: 2
Flags: W
LayerCount: 2
Fore
SplineSet
937 97 m 1,0,1
 799 -20 799 -20 603 -20 c 0,2,3
 363 -20 363 -20 260 107 c 1,4,5
 163 225 163 225 163 481 c 2,6,-1
 163 1000 l 1,7,-1
 353 1000 l 1,8,-1
 353 493 l 2,9,10
 353 319 353 319 405 237 c 0,11,12
 466 140 466 140 616 140 c 0,13,14
 769 140 769 140 869 224 c 0,15,16
 900 250 900 250 921 281 c 1,17,-1
 921 1000 l 1,18,-1
 1111 1000 l 1,19,-1
 1111 0 l 1,20,-1
 966 0 l 1,21,-1
 937 97 l 1,0,1
EndSplineSet
EndChar

StartChar: v
Encoding: 118 118 108
Width: 1057
GlyphClass: 2
Flags: W
LayerCount: 2
Fore
SplineSet
40 1000 m 1,0,-1
 237 1000 l 1,1,2
 457 436 457 436 475 387 c 2,3,4
 475 387 475 387 505 301 c 0,5,6
 519 259 519 259 531 219 c 1,7,-1
 543 219 l 1,8,9
 543 219 543 219 597 386 c 0,10,11
 611 428 611 428 625 462 c 2,12,-1
 835 1000 l 1,13,-1
 1017 1000 l 1,14,-1
 627 0 l 1,15,-1
 430 0 l 1,16,-1
 40 1000 l 1,0,-1
EndSplineSet
EndChar

StartChar: w
Encoding: 119 119 109
Width: 1613
GlyphClass: 2
Flags: W
LayerCount: 2
Fore
SplineSet
62 1000 m 1,0,-1
 251 1000 l 1,1,-1
 387 567 l 2,2,3
 401 524 401 524 416 468 c 2,4,-1
 473 243 l 1,5,-1
 484 243 l 1,6,-1
 541 458 l 2,7,8
 556 513 556 513 570 558 c 2,9,-1
 712 1000 l 1,10,-1
 901 1000 l 1,11,-1
 1039 567 l 2,12,13
 1055 517 1055 517 1071 461 c 0,14,15
 1108 327 1108 327 1129 243 c 1,16,-1
 1140 243 l 1,17,-1
 1169 351 l 2,18,19
 1199 463 1199 463 1233 564 c 2,20,-1
 1377 1000 l 1,21,-1
 1551 1000 l 1,22,-1
 1221 0 l 1,23,-1
 1047 0 l 1,24,-1
 801 734 l 1,25,-1
 566 0 l 1,26,-1
 392 0 l 1,27,-1
 62 1000 l 1,0,-1
EndSplineSet
EndChar

StartChar: x
Encoding: 120 120 110
Width: 1069
GlyphClass: 2
Flags: W
LayerCount: 2
Fore
SplineSet
428 509 m 1,0,-1
 56 1000 l 1,1,-1
 269 1000 l 1,2,-1
 541 638 l 1,3,-1
 811 1000 l 1,4,-1
 1013 1000 l 1,5,-1
 641 505 l 1,6,-1
 1023 0 l 1,7,-1
 810 0 l 1,8,-1
 528 376 l 1,9,-1
 248 0 l 1,10,-1
 46 0 l 1,11,-1
 428 509 l 1,0,-1
EndSplineSet
EndChar

StartChar: y
Encoding: 121 121 111
Width: 1057
GlyphClass: 2
Flags: W
LayerCount: 2
Fore
SplineSet
79 -299 m 1,0,1
 130 -318 130 -318 183.5 -318 c 128,-1,2
 237 -318 237 -318 270 -296.5 c 128,-1,3
 303 -275 303 -275 330 -238 c 0,4,5
 378 -175 378 -175 428 -46 c 2,6,-1
 438 -20 l 1,7,-1
 40 1000 l 1,8,-1
 237 1000 l 1,9,-1
 447 457 l 2,10,11
 464 413 464 413 478 368 c 2,12,13
 478 368 478 368 503 286 c 1,14,15
 515 243 515 243 525 203 c 1,16,-1
 535 203 l 1,17,18
 535 203 535 203 558 276 c 0,19,20
 584 355 584 355 620 448 c 2,21,-1
 835 1000 l 1,22,-1
 1017 1000 l 1,23,-1
 622 0 l 2,24,25
 478 -366 478 -366 308 -455 c 0,26,27
 247 -487 247 -487 191.5 -487 c 128,-1,28
 136 -487 136 -487 107.5 -478 c 128,-1,29
 79 -469 79 -469 47 -444 c 1,30,-1
 79 -299 l 1,0,1
EndSplineSet
EndChar

StartChar: z
Encoding: 122 122 112
Width: 954
GlyphClass: 2
Flags: W
LayerCount: 2
Fore
SplineSet
86 148 m 1,0,-1
 646 852 l 1,1,-1
 106 852 l 1,2,-1
 106 1000 l 1,3,-1
 858 1000 l 1,4,-1
 858 852 l 1,5,-1
 298 148 l 1,6,-1
 876 148 l 1,7,-1
 876 0 l 1,8,-1
 86 0 l 1,9,-1
 86 148 l 1,0,-1
EndSplineSet
EndChar

StartChar: braceleft
Encoding: 123 123 113
Width: 733
GlyphClass: 2
Flags: W
LayerCount: 2
Fore
SplineSet
256 642 m 1,0,1
 401 577 401 577 401 362 c 2,2,-1
 401 36 l 2,3,4
 401 -96 401 -96 494 -174 c 0,5,6
 522 -198 522 -198 556 -218 c 1,7,-1
 481 -330 l 1,8,9
 311 -265 311 -265 254 -114 c 0,10,11
 234 -60 234 -60 234 6 c 2,12,-1
 234 332 l 2,13,14
 234 430 234 430 191 499 c 0,15,16
 147 569 147 569 87 569 c 1,17,-1
 87 698 l 1,18,19
 149 698 149 698 191 752 c 0,20,21
 234 806 234 806 234 895 c 2,22,-1
 234 1225 l 2,23,24
 234 1377 234 1377 297 1477.5 c 128,-1,25
 360 1578 360 1578 471 1616 c 1,26,-1
 539 1509 l 1,27,28
 468 1470 468 1470 434.5 1411 c 128,-1,29
 401 1352 401 1352 401 1255 c 2,30,-1
 401 925 l 2,31,32
 401 709 401 709 256 642 c 1,0,1
EndSplineSet
EndChar

StartChar: bar
Encoding: 124 124 114
Width: 553
GlyphClass: 2
Flags: W
LayerCount: 2
Fore
SplineSet
193 1561 m 1,0,-1
 360 1561 l 1,1,-1
 360 -467 l 1,2,-1
 193 -467 l 1,3,-1
 193 1561 l 1,0,-1
EndSplineSet
EndChar

StartChar: asciitilde
Encoding: 126 126 116
Width: 1288
GlyphClass: 2
Flags: W
LayerCount: 2
Fore
SplineSet
157 910 m 1,0,1
 247 1127 247 1127 406 1180 c 0,2,3
 441 1192 441 1192 481 1192 c 128,-1,4
 521 1192 521 1192 554.5 1178.5 c 128,-1,5
 588 1165 588 1165 617 1145 c 128,-1,6
 646 1125 646 1125 671.5 1101.5 c 128,-1,7
 697 1078 697 1078 722 1058 c 0,8,9
 779 1011 779 1011 811.5 1011 c 128,-1,10
 844 1011 844 1011 864.5 1018 c 128,-1,11
 885 1025 885 1025 903 1037 c 0,12,13
 970 1081 970 1081 1020 1182 c 1,14,-1
 1131 1126 l 1,15,16
 1029 917 1029 917 872 866 c 0,17,18
 836 855 836 855 796 855 c 0,19,20
 705 855 705 855 606.5 945.5 c 128,-1,21
 508 1036 508 1036 456 1036 c 0,22,23
 381 1036 381 1036 317 945 c 0,24,25
 289 905 289 905 268 855 c 1,26,-1
 157 910 l 1,0,1
EndSplineSet
EndChar

StartChar: cent
Encoding: 162 162 119
Width: 1065
GlyphClass: 2
Flags: W
LayerCount: 2
Fore
SplineSet
1028 273 m 1,0,1
 903 203 903 203 718 184 c 1,2,-1
 718 -96 l 1,3,-1
 565 -96 l 1,4,-1
 565 182 l 1,5,6
 347 200 347 200 222 335 c 0,7,8
 95 472 95 472 95 698 c 0,9,10
 95 909 95 909 228 1051 c 0,11,12
 358 1191 358 1191 565 1215 c 1,13,-1
 565 1471 l 1,14,-1
 718 1471 l 1,15,-1
 718 1217 l 1,16,17
 888 1205 888 1205 999 1145 c 1,18,-1
 953 992 l 1,19,20
 857 1043 857 1043 718 1058 c 1,21,-1
 718 343 l 1,22,23
 876 359 876 359 992 416 c 1,24,-1
 1028 273 l 1,0,1
565 1059 m 1,25,26
 435 1039 435 1039 360 944 c 0,27,28
 285 850 285 850 285 710 c 0,29,30
 285 492 285 492 448 392 c 0,31,32
 500 360 500 360 565 348 c 1,33,-1
 565 1059 l 1,25,26
EndSplineSet
EndChar

StartChar: sterling
Encoding: 163 163 120
Width: 1208
GlyphClass: 2
Flags: W
LayerCount: 2
Fore
SplineSet
314 144 m 1,0,1
 458 168 458 168 575 168 c 2,2,-1
 1091 168 l 1,3,-1
 1091 0 l 1,4,-1
 145 0 l 1,5,-1
 128 166 l 1,6,7
 351 288 351 288 351 504 c 0,8,9
 351 544 351 544 343 590 c 1,10,-1
 142 590 l 1,11,-1
 142 744 l 1,12,-1
 313 744 l 1,13,14
 288 872 288 872 288 972 c 128,-1,15
 288 1072 288 1072 315.5 1158.5 c 128,-1,16
 343 1245 343 1245 396 1307 c 0,17,18
 509 1437 509 1437 713 1437 c 0,19,20
 844 1437 844 1437 956 1380 c 0,21,22
 990 1363 990 1363 1011 1345 c 1,23,-1
 946 1209 l 1,24,25
 834 1283 834 1283 703 1283 c 0,26,27
 475 1283 475 1283 475 998 c 0,28,29
 475 905 475 905 506 744 c 1,30,-1
 864 744 l 1,31,-1
 864 590 l 1,32,-1
 534 590 l 1,33,34
 537 561 537 561 537 521.5 c 128,-1,35
 537 482 537 482 526 431 c 128,-1,36
 515 380 515 380 490 330 c 1,37,38
 435 226 435 226 314 144 c 1,0,1
EndSplineSet
EndChar

StartChar: currency
Encoding: 164 164 121
Width: 1199
GlyphClass: 2
Flags: W
LayerCount: 2
Fore
SplineSet
592 248 m 0,0,1
 463 248 463 248 364 312 c 1,2,-1
 169 93 l 1,3,-1
 59 203 l 1,4,-1
 274 394 l 1,5,6
 199 494 199 494 199 628 c 0,7,8
 199 763 199 763 281 866 c 1,9,-1
 59 1064 l 1,10,-1
 169 1174 l 1,11,-1
 370 948 l 1,12,13
 475 1020 475 1020 606 1020 c 0,14,15
 733 1020 733 1020 834 955 c 1,16,-1
 1030 1174 l 1,17,-1
 1140 1064 l 1,18,-1
 923 872 l 1,19,20
 999 771 999 771 999 637 c 256,21,22
 999 503 999 503 918 401 c 1,23,-1
 1140 203 l 1,24,-1
 1030 93 l 1,25,-1
 829 319 l 1,26,27
 722 248 722 248 592 248 c 0,0,1
604 389 m 0,28,29
 655 389 655 389 696 408 c 128,-1,30
 737 427 737 427 766 459 c 0,31,32
 828 526 828 526 828 628 c 0,33,34
 828 736 828 736 763 806 c 0,35,36
 696 879 696 879 592 879 c 0,37,38
 496 879 496 879 432 807 c 0,39,40
 370 738 370 738 370 637 c 0,41,42
 370 529 370 529 435 460 c 0,43,44
 502 389 502 389 604 389 c 0,28,29
EndSplineSet
EndChar

StartChar: yen
Encoding: 165 165 122
Width: 1291
GlyphClass: 2
Flags: W
LayerCount: 2
Fore
SplineSet
185 429 m 1,0,-1
 559 429 l 1,1,-1
 559 575 l 1,2,-1
 185 575 l 1,3,-1
 185 729 l 1,4,-1
 478 729 l 1,5,-1
 37 1416 l 1,6,-1
 240 1416 l 1,7,-1
 653 769 l 1,8,-1
 1063 1416 l 1,9,-1
 1254 1416 l 1,10,-1
 820 729 l 1,11,-1
 1107 729 l 1,12,-1
 1107 575 l 1,13,-1
 744 575 l 1,14,-1
 744 429 l 1,15,-1
 1107 429 l 1,16,-1
 1107 275 l 1,17,-1
 744 275 l 1,18,-1
 744 0 l 1,19,-1
 559 0 l 1,20,-1
 559 275 l 1,21,-1
 185 275 l 1,22,-1
 185 429 l 1,0,-1
EndSplineSet
EndChar

StartChar: brokenbar
Encoding: 166 166 123
Width: 553
GlyphClass: 2
Flags: W
LayerCount: 2
Fore
SplineSet
193 1561 m 1,0,-1
 360 1561 l 1,1,-1
 360 741 l 1,2,-1
 193 741 l 1,3,-1
 193 1561 l 1,0,-1
360 353 m 1,4,-1
 360 -467 l 1,5,-1
 193 -467 l 1,6,-1
 193 353 l 1,7,-1
 360 353 l 1,4,-1
EndSplineSet
EndChar

StartChar: section
Encoding: 167 167 124
Width: 1114
GlyphClass: 2
Flags: W
LayerCount: 2
Fore
SplineSet
853 457 m 1,0,1
 913 393 913 393 913 310.5 c 128,-1,2
 913 228 913 228 882.5 169.5 c 128,-1,3
 852 111 852 111 801 69 c 0,4,5
 693 -20 693 -20 548 -20 c 0,6,7
 361 -20 361 -20 196 116 c 1,8,-1
 289 264 l 1,9,10
 424 146 424 146 566 146 c 0,11,12
 666 146 666 146 704 216 c 0,13,14
 717 239 717 239 717 273.5 c 128,-1,15
 717 308 717 308 692 335 c 128,-1,16
 667 362 667 362 626.5 381.5 c 128,-1,17
 586 401 586 401 534 417 c 2,18,-1
 427 450 l 1,19,20
 291 493 291 493 239 534 c 0,21,22
 137 615 137 615 137 730 c 0,23,24
 137 799 137 799 171 860 c 128,-1,25
 205 921 205 921 260 959 c 1,26,27
 201 1022 201 1022 201 1104.5 c 128,-1,28
 201 1187 201 1187 231.5 1246 c 128,-1,29
 262 1305 262 1305 313 1347 c 0,30,31
 421 1436 421 1436 566 1436 c 0,32,33
 753 1436 753 1436 918 1300 c 1,34,-1
 825 1152 l 1,35,36
 690 1270 690 1270 548 1270 c 0,37,38
 448 1270 448 1270 410 1200 c 0,39,40
 397 1177 397 1177 397 1142.5 c 128,-1,41
 397 1108 397 1108 422 1081 c 128,-1,42
 447 1054 447 1054 487.5 1034.5 c 128,-1,43
 528 1015 528 1015 580 999 c 2,44,-1
 687 966 l 1,45,46
 823 923 823 923 875 882 c 0,47,48
 977 801 977 801 977 686 c 0,49,50
 977 616 977 616 943 555.5 c 128,-1,51
 909 495 909 495 853 457 c 1,0,1
383 877 m 1,52,53
 333 836 333 836 333 760 c 0,54,55
 333 677 333 677 468 628 c 0,56,57
 508 614 508 614 552 600 c 2,58,-1
 642 572 l 2,59,60
 688 558 688 558 731 539 c 1,61,62
 781 580 781 580 781 656 c 0,63,64
 781 740 781 740 646 787 c 1,65,-1
 472 844 l 1,66,67
 425 858 425 858 383 877 c 1,52,53
EndSplineSet
EndChar

StartChar: dieresis
Encoding: 168 168 125
Width: 598
GlyphClass: 2
Flags: W
LayerCount: 2
Fore
SplineSet
495 1222 m 256,0,1
 450 1222 450 1222 419.5 1252.5 c 128,-1,2
 389 1283 389 1283 389 1328 c 256,3,4
 389 1373 389 1373 419.5 1403.5 c 128,-1,5
 450 1434 450 1434 495 1434 c 256,6,7
 540 1434 540 1434 570.5 1403.5 c 128,-1,8
 601 1373 601 1373 601 1328 c 256,9,10
 601 1283 601 1283 570.5 1252.5 c 128,-1,11
 540 1222 540 1222 495 1222 c 256,0,1
103 1222 m 256,12,13
 58 1222 58 1222 27.5 1252.5 c 128,-1,14
 -3 1283 -3 1283 -3 1328 c 256,15,16
 -3 1373 -3 1373 27.5 1403.5 c 128,-1,17
 58 1434 58 1434 103 1434 c 256,18,19
 148 1434 148 1434 178.5 1403.5 c 128,-1,20
 209 1373 209 1373 209 1328 c 256,21,22
 209 1283 209 1283 178.5 1252.5 c 128,-1,23
 148 1222 148 1222 103 1222 c 256,12,13
EndSplineSet
EndChar

StartChar: copyright
Encoding: 169 169 126
Width: 1584
GlyphClass: 2
Flags: W
LayerCount: 2
Fore
SplineSet
137 586 m 0,0,1
 137 721 137 721 188.5 837 c 128,-1,2
 240 953 240 953 330 1036 c 0,3,4
 521 1212 521 1212 800 1212 c 0,5,6
 1070 1212 1070 1212 1256 1043 c 0,7,8
 1344 963 1344 963 1395.5 852 c 128,-1,9
 1447 741 1447 741 1447 606 c 128,-1,10
 1447 471 1447 471 1395.5 355 c 128,-1,11
 1344 239 1344 239 1254 156 c 0,12,13
 1063 -20 1063 -20 784 -20 c 0,14,15
 514 -20 514 -20 328 149 c 0,16,17
 137 323 137 323 137 586 c 0,0,1
283 608 m 0,18,19
 283 502 283 502 323.5 409.5 c 128,-1,20
 364 317 364 317 434 248 c 0,21,22
 586 101 586 101 800 101 c 0,23,24
 1009 101 1009 101 1154 238 c 0,25,26
 1301 378 1301 378 1301 583 c 0,27,28
 1301 797 1301 797 1150 944 c 0,29,30
 998 1092 998 1092 784 1092 c 0,31,32
 575 1092 575 1092 430 954 c 0,33,34
 283 815 283 815 283 608 c 0,18,19
818 401 m 0,35,36
 917 401 917 401 1009 446 c 1,37,-1
 1036 342 l 1,38,39
 980 300 980 300 870 282 c 0,40,41
 836 277 836 277 782.5 277 c 128,-1,42
 729 277 729 277 666.5 298.5 c 128,-1,43
 604 320 604 320 560 360 c 0,44,45
 467 446 467 446 467 595 c 0,46,47
 467 739 467 739 568 829 c 0,48,49
 668 917 668 917 818 917 c 0,50,51
 927 917 927 917 1016 863 c 1,52,-1
 965 753 l 1,53,54
 888 796 888 796 799.5 796 c 128,-1,55
 711 796 711 796 662 747 c 128,-1,56
 613 698 613 698 613 604 c 0,57,58
 613 401 613 401 818 401 c 0,35,36
EndSplineSet
EndChar

StartChar: ordfeminine
Encoding: 170 170 127
Width: 933
GlyphClass: 2
Flags: W
LayerCount: 2
Fore
SplineSet
620 909 m 1,0,1
 486 796 486 796 344 796 c 0,2,3
 233 796 233 796 157 854 c 1,4,5
 75 918 75 918 75 1008 c 128,-1,6
 75 1098 75 1098 118 1153 c 128,-1,7
 161 1208 161 1208 232 1242 c 0,8,9
 367 1308 367 1308 591 1312 c 1,10,11
 585 1387 585 1387 540 1414 c 0,12,13
 500 1437 500 1437 405 1437 c 128,-1,14
 310 1437 310 1437 213 1398 c 1,15,-1
 173 1514 l 1,16,17
 285 1566 285 1566 423 1566 c 0,18,19
 656 1566 656 1566 731 1421 c 0,20,21
 757 1371 757 1371 757 1302 c 2,22,-1
 757 1067 l 2,23,24
 757 997 757 997 769 971 c 0,25,26
 789 928 789 928 841 913 c 1,27,-1
 817 810 l 1,28,29
 675 792 675 792 620 909 c 1,0,1
356 926 m 0,30,31
 496 926 496 926 592 1033 c 1,32,-1
 592 1193 l 1,33,34
 418 1184 418 1184 356 1160.5 c 128,-1,35
 294 1137 294 1137 266.5 1106.5 c 128,-1,36
 239 1076 239 1076 239 1026 c 128,-1,37
 239 976 239 976 271.5 951 c 128,-1,38
 304 926 304 926 356 926 c 0,30,31
EndSplineSet
EndChar

StartChar: guillemotleft
Encoding: 171 171 128
Width: 1204
GlyphClass: 2
Flags: W
LayerCount: 2
Fore
SplineSet
609 531 m 1,0,-1
 1034 944 l 1,1,-1
 1130 853 l 1,2,-1
 829 516 l 1,3,-1
 1125 198 l 1,4,-1
 1032 98 l 1,5,-1
 609 471 l 1,6,-1
 609 531 l 1,0,-1
113 531 m 1,7,-1
 538 944 l 1,8,-1
 634 853 l 1,9,-1
 333 516 l 1,10,-1
 629 198 l 1,11,-1
 536 98 l 1,12,-1
 113 471 l 1,13,-1
 113 531 l 1,7,-1
EndSplineSet
EndChar

StartChar: logicalnot
Encoding: 172 172 129
Width: 1335
GlyphClass: 2
Flags: W
LayerCount: 2
Fore
SplineSet
207 723 m 1,0,-1
 1128 723 l 1,1,-1
 1127 151 l 1,2,-1
 942 151 l 1,3,-1
 942 555 l 1,4,-1
 207 555 l 1,5,-1
 207 723 l 1,0,-1
EndSplineSet
EndChar

StartChar: registered
Encoding: 174 174 131
Width: 1299
GlyphClass: 2
Flags: W
LayerCount: 2
Fore
SplineSet
646 715 m 0,0,1
 531 715 531 715 432 752.5 c 128,-1,2
 333 790 333 790 258 858 c 0,3,4
 97 1004 97 1004 97 1223 c 0,5,6
 97 1453 97 1453 260 1604 c 0,7,8
 420 1753 420 1753 656 1753 c 0,9,10
 883 1753 883 1753 1040 1610 c 1,11,12
 1202 1464 1202 1464 1202 1244 c 0,13,14
 1202 1013 1202 1013 1039 863 c 0,15,16
 878 715 878 715 646 715 c 0,0,1
654 821 m 0,17,18
 742 821 742 821 818 851.5 c 128,-1,19
 894 882 894 882 951 936 c 0,20,21
 1074 1053 1074 1053 1074 1223 c 0,22,23
 1074 1400 1074 1400 948 1524 c 256,24,25
 822 1648 822 1648 643 1648 c 0,26,27
 470 1648 470 1648 348 1532 c 0,28,29
 225 1415 225 1415 225 1244 c 0,30,31
 225 1067 225 1067 352 944 c 0,32,33
 478 821 478 821 654 821 c 0,17,18
694 1119 m 1,34,35
 666 1117 666 1117 640 1117 c 2,36,-1
 520 1117 l 1,37,-1
 520 971 l 1,38,-1
 419 971 l 1,39,-1
 419 1505 l 1,40,-1
 651 1505 l 2,41,42
 839 1505 839 1505 898 1408 c 0,43,44
 920 1372 920 1372 920 1318 c 0,45,46
 920 1190 920 1190 796 1141 c 1,47,-1
 886 971 l 1,48,-1
 773 971 l 1,49,-1
 694 1119 l 1,34,35
649 1213 m 2,50,51
 770 1213 770 1213 802 1260 c 0,52,53
 816 1279 816 1279 816 1312 c 0,54,55
 816 1396 816 1396 704 1407 c 0,56,57
 672 1410 672 1410 639 1410 c 2,58,-1
 520 1410 l 1,59,-1
 520 1213 l 1,60,-1
 649 1213 l 2,50,51
EndSplineSet
EndChar

StartChar: macron
Encoding: 175 175 132
Width: 598
GlyphClass: 2
Flags: W
LayerCount: 2
Fore
SplineSet
-23 1400 m 1,0,-1
 621 1400 l 1,1,-1
 621 1260 l 1,2,-1
 -23 1260 l 1,3,-1
 -23 1400 l 1,0,-1
EndSplineSet
EndChar

StartChar: degree
Encoding: 176 176 133
Width: 738
GlyphClass: 2
Flags: W
LayerCount: 2
Fore
SplineSet
368 856 m 0,0,1
 240 856 240 856 156 936 c 0,2,3
 69 1019 69 1019 69 1143 c 256,4,5
 69 1267 69 1267 156 1352 c 0,6,7
 242 1436 242 1436 370 1436 c 0,8,9
 497 1436 497 1436 582 1354 c 1,10,11
 669 1272 669 1272 669 1147 c 256,12,13
 669 1022 669 1022 582 938 c 1,14,15
 495 856 495 856 368 856 c 0,0,1
488.5 1022.5 m 128,-1,17
 532 1068 532 1068 532 1143 c 0,18,19
 532 1261 532 1261 436 1302 c 0,20,21
 405 1315 405 1315 368 1315 c 0,22,23
 293 1315 293 1315 249.5 1268.5 c 128,-1,24
 206 1222 206 1222 206 1165.5 c 128,-1,25
 206 1109 206 1109 217.5 1078 c 128,-1,26
 229 1047 229 1047 250 1024 c 1,27,28
 296 977 296 977 370.5 977 c 128,-1,16
 445 977 445 977 488.5 1022.5 c 128,-1,17
EndSplineSet
EndChar

StartChar: plusminus
Encoding: 177 177 134
Width: 1336
GlyphClass: 2
Flags: W
LayerCount: 2
Fore
SplineSet
575 796 m 1,0,-1
 207 796 l 1,1,-1
 207 964 l 1,2,-1
 575 964 l 1,3,-1
 575 1350 l 1,4,-1
 760 1350 l 1,5,-1
 760 964 l 1,6,-1
 1129 964 l 1,7,-1
 1129 796 l 1,8,-1
 760 796 l 1,9,-1
 760 410 l 1,10,-1
 575 410 l 1,11,-1
 575 796 l 1,0,-1
207 228 m 1,12,-1
 1129 228 l 1,13,-1
 1129 60 l 1,14,-1
 207 60 l 1,15,-1
 207 228 l 1,12,-1
EndSplineSet
EndChar

StartChar: twosuperior
Encoding: 178 178 135
Width: 962
GlyphClass: 2
Flags: W
LayerCount: 2
Fore
SplineSet
167 1706 m 1,0,1
 318 1779 318 1779 466 1779 c 0,2,3
 700 1779 700 1779 779 1632 c 0,4,5
 806 1581 806 1581 806 1520.5 c 128,-1,6
 806 1460 806 1460 790 1414.5 c 128,-1,7
 774 1369 774 1369 746 1326 c 1,8,9
 696 1253 696 1253 588 1163 c 2,10,-1
 415 1018 l 1,11,-1
 819 1018 l 1,12,-1
 819 866 l 1,13,-1
 190 866 l 1,14,-1
 190 1013 l 1,15,-1
 406 1196 l 2,16,17
 519 1293 519 1293 558 1344 c 0,18,19
 631 1438 631 1438 631 1504 c 0,20,21
 631 1569 631 1569 574 1604 c 0,22,23
 524 1635 524 1635 425.5 1635 c 128,-1,24
 327 1635 327 1635 210 1574 c 1,25,-1
 167 1706 l 1,0,1
EndSplineSet
EndChar

StartChar: threesuperior
Encoding: 179 179 136
Width: 939
GlyphClass: 2
Flags: W
LayerCount: 2
Fore
SplineSet
581 1537 m 0,0,1
 581 1633 581 1633 438.5 1633 c 128,-1,2
 296 1633 296 1633 208 1587 c 1,3,-1
 164 1716 l 1,4,5
 290 1779 290 1779 451 1779 c 0,6,7
 577 1779 577 1779 662 1720 c 0,8,9
 756 1656 756 1656 756 1545 c 0,10,11
 756 1481 756 1481 718.5 1427 c 128,-1,12
 681 1373 681 1373 607 1347 c 1,13,-1
 607 1341 l 1,14,15
 694 1319 694 1319 740 1261 c 128,-1,16
 786 1203 786 1203 786 1127 c 128,-1,17
 786 1051 786 1051 754.5 1000 c 128,-1,18
 723 949 723 949 672 915 c 0,19,20
 572 848 572 848 420 848 c 0,21,22
 238 848 238 848 125 917 c 1,23,-1
 169 1062 l 1,24,25
 287 996 287 996 438 996 c 0,26,27
 557 996 557 996 596 1060 c 0,28,29
 609 1083 609 1083 609 1123.5 c 128,-1,30
 609 1164 609 1164 584.5 1193 c 128,-1,31
 560 1222 560 1222 516 1236 c 0,32,33
 435 1261 435 1261 268 1242 c 1,34,-1
 268 1398 l 1,35,-1
 318 1396 l 2,36,37
 338 1395 338 1395 359 1395 c 2,38,-1
 392 1395 l 2,39,40
 518 1395 518 1395 565 1474 c 0,41,42
 581 1500 581 1500 581 1537 c 0,0,1
EndSplineSet
EndChar

StartChar: acute
Encoding: 180 180 137
Width: 598
GlyphClass: 2
Flags: W
LayerCount: 2
Fore
SplineSet
86 1235 m 1,0,-1
 419 1521 l 1,1,-1
 535 1405 l 1,2,-1
 179 1145 l 1,3,-1
 86 1235 l 1,0,-1
EndSplineSet
EndChar

StartChar: mu
Encoding: 181 181 138
AltUni2: 0003bc.ffffffff.0
Width: 1317
GlyphClass: 2
Flags: W
LayerCount: 2
Fore
SplineSet
958 98 m 1,0,1
 813 -20 813 -20 619 -20 c 0,2,3
 434 -20 434 -20 326 50 c 1,4,5
 354 -64 354 -64 354 -199 c 2,6,-1
 354 -335 l 1,7,-1
 163 -335 l 1,8,-1
 163 1000 l 1,9,-1
 353 1000 l 1,10,-1
 353 493 l 2,11,12
 353 317 353 317 411 234 c 0,13,14
 477 140 477 140 632 140 c 0,15,16
 783 140 783 140 890 225 c 0,17,18
 922 251 922 251 943 282 c 1,19,-1
 943 1000 l 1,20,-1
 1133 1000 l 1,21,-1
 1133 0 l 1,22,-1
 988 0 l 1,23,-1
 958 98 l 1,0,1
EndSplineSet
EndChar

StartChar: paragraph
Encoding: 182 182 139
Width: 1226
GlyphClass: 2
Flags: W
LayerCount: 2
Fore
SplineSet
567 704 m 1,0,1
 377 704 377 704 257 792 c 0,2,3
 127 887 127 887 127 1060 c 0,4,5
 127 1229 127 1229 268 1328 c 0,6,7
 392 1415 392 1415 588 1415 c 2,8,-1
 1062 1415 l 1,9,-1
 1062 -104 l 1,10,-1
 915 -104 l 1,11,-1
 915 1285 l 1,12,-1
 718 1285 l 1,13,-1
 718 -104 l 1,14,-1
 567 -104 l 1,15,-1
 567 704 l 1,0,1
EndSplineSet
EndChar

StartChar: periodcentered
Encoding: 183 183 140
Width: 562
GlyphClass: 2
Flags: W
LayerCount: 2
Fore
SplineSet
393.5 438.5 m 128,-1,1
 351 396 351 396 281 396 c 128,-1,2
 211 396 211 396 168.5 438.5 c 128,-1,3
 126 481 126 481 126 551 c 128,-1,4
 126 621 126 621 168.5 663 c 128,-1,5
 211 705 211 705 281 705 c 128,-1,6
 351 705 351 705 393.5 663 c 128,-1,7
 436 621 436 621 436 551 c 128,-1,0
 436 481 436 481 393.5 438.5 c 128,-1,1
EndSplineSet
EndChar

StartChar: cedilla
Encoding: 184 184 141
Width: 598
GlyphClass: 2
Flags: W
LayerCount: 2
Fore
SplineSet
334 -15 m 1,0,1
 326 -33 326 -33 320 -48 c 2,2,3
 320 -48 320 -48 308 -77 c 0,4,5
 303 -91 303 -91 301 -100 c 1,6,7
 365 -116 365 -116 401.5 -154 c 128,-1,8
 438 -192 438 -192 438 -237.5 c 128,-1,9
 438 -283 438 -283 417.5 -317.5 c 128,-1,10
 397 -352 397 -352 366 -384 c 1,11,12
 304 -445 304 -445 220 -486 c 1,13,-1
 146 -411 l 1,14,15
 146 -411 146 -411 186 -380 c 0,16,17
 261 -320 261 -320 261 -279 c 0,18,19
 261 -234 261 -234 144 -209 c 1,20,21
 157 -161 157 -161 174 -118 c 1,22,-1
 204 -50 l 2,23,24
 216 -23 216 -23 227 -3 c 1,25,-1
 334 -15 l 1,0,1
EndSplineSet
EndChar

StartChar: onesuperior
Encoding: 185 185 142
Width: 710
GlyphClass: 2
Flags: W
LayerCount: 2
Fore
SplineSet
326 1593 m 1,0,-1
 113 1472 l 1,1,-1
 61 1613 l 1,2,-1
 338 1762 l 1,3,-1
 503 1762 l 1,4,-1
 503 866 l 1,5,-1
 326 866 l 1,6,-1
 326 1593 l 1,0,-1
EndSplineSet
EndChar

StartChar: ordmasculine
Encoding: 186 186 143
Width: 938
GlyphClass: 2
Flags: W
LayerCount: 2
Fore
SplineSet
462 794 m 0,0,1
 291 794 291 794 182 900 c 1,2,3
 69 1008 69 1008 69 1174 c 256,4,5
 69 1340 69 1340 188 1454 c 1,6,7
 307 1566 307 1566 476 1566 c 0,8,9
 646 1566 646 1566 756 1460 c 0,10,11
 869 1351 869 1351 869 1183 c 0,12,13
 869 1017 869 1017 750 905 c 0,14,15
 631 794 631 794 462 794 c 0,0,1
474 930 m 0,16,17
 527 930 527 930 568.5 949 c 128,-1,18
 610 968 610 968 640 1001 c 0,19,20
 703 1070 703 1070 703 1174 c 0,21,22
 703 1284 703 1284 636 1356 c 1,23,24
 569 1430 569 1430 462 1430 c 0,25,26
 362 1430 362 1430 298 1357 c 0,27,28
 235 1286 235 1286 235 1183 c 0,29,30
 235 1074 235 1074 302 1002 c 0,31,32
 368 930 368 930 474 930 c 0,16,17
EndSplineSet
EndChar

StartChar: onequarter
Encoding: 188 188 145
Width: 1871
GlyphClass: 2
Flags: W
LayerCount: 2
Fore
SplineSet
1645 1761 m 1,0,-1
 1766 1661 l 1,1,-1
 149 -267 l 1,2,-1
 28 -167 l 1,3,-1
 1645 1761 l 1,0,-1
1418 629 m 1,4,-1
 1595 629 l 1,5,-1
 1595 88 l 1,6,-1
 1772 88 l 1,7,-1
 1772 -63 l 1,8,-1
 1595 -63 l 1,9,-1
 1595 -266 l 1,10,-1
 1418 -266 l 1,11,-1
 1418 -63 l 1,12,-1
 979 -63 l 1,13,-1
 946 41 l 1,14,-1
 1418 629 l 1,4,-1
1418 88 m 1,15,-1
 1418 424 l 1,16,-1
 1156 88 l 1,17,-1
 1418 88 l 1,15,-1
326 1593 m 1,18,-1
 113 1472 l 1,19,-1
 61 1613 l 1,20,-1
 338 1762 l 1,21,-1
 503 1762 l 1,22,-1
 503 866 l 1,23,-1
 326 866 l 1,24,-1
 326 1593 l 1,18,-1
EndSplineSet
EndChar

StartChar: onehalf
Encoding: 189 189 146
Width: 1931
GlyphClass: 2
Flags: W
LayerCount: 2
Fore
SplineSet
1645 1761 m 1,0,-1
 1766 1661 l 1,1,-1
 149 -267 l 1,2,-1
 28 -167 l 1,3,-1
 1645 1761 l 1,0,-1
326 1593 m 1,4,-1
 113 1472 l 1,5,-1
 61 1613 l 1,6,-1
 338 1762 l 1,7,-1
 503 1762 l 1,8,-1
 503 866 l 1,9,-1
 326 866 l 1,10,-1
 326 1593 l 1,4,-1
1136 574 m 1,11,12
 1287 647 1287 647 1435 647 c 0,13,14
 1669 647 1669 647 1748 500 c 0,15,16
 1775 449 1775 449 1775 388.5 c 128,-1,17
 1775 328 1775 328 1759 282.5 c 128,-1,18
 1743 237 1743 237 1714 194 c 0,19,20
 1665 121 1665 121 1557 31 c 2,21,-1
 1384 -114 l 1,22,-1
 1788 -114 l 1,23,-1
 1788 -266 l 1,24,-1
 1159 -266 l 1,25,-1
 1159 -119 l 1,26,-1
 1375 64 l 2,27,28
 1488 161 1488 161 1527 212 c 0,29,30
 1600 306 1600 306 1600 372 c 0,31,32
 1600 437 1600 437 1543 472 c 0,33,34
 1493 503 1493 503 1394.5 503 c 128,-1,35
 1296 503 1296 503 1179 442 c 1,36,-1
 1136 574 l 1,11,12
EndSplineSet
EndChar

StartChar: threequarters
Encoding: 190 190 147
Width: 1981
GlyphClass: 2
Flags: W
LayerCount: 2
Fore
SplineSet
1755 1761 m 1,0,-1
 1876 1661 l 1,1,-1
 259 -267 l 1,2,-1
 138 -167 l 1,3,-1
 1755 1761 l 1,0,-1
1528 629 m 1,4,-1
 1705 629 l 1,5,-1
 1705 88 l 1,6,-1
 1882 88 l 1,7,-1
 1882 -63 l 1,8,-1
 1705 -63 l 1,9,-1
 1705 -266 l 1,10,-1
 1528 -266 l 1,11,-1
 1528 -63 l 1,12,-1
 1089 -63 l 1,13,-1
 1056 41 l 1,14,-1
 1528 629 l 1,4,-1
1528 88 m 1,15,-1
 1528 424 l 1,16,-1
 1266 88 l 1,17,-1
 1528 88 l 1,15,-1
581 1537 m 0,18,19
 581 1633 581 1633 438.5 1633 c 128,-1,20
 296 1633 296 1633 208 1587 c 1,21,-1
 164 1716 l 1,22,23
 290 1779 290 1779 451 1779 c 0,24,25
 577 1779 577 1779 662 1720 c 0,26,27
 756 1656 756 1656 756 1545 c 0,28,29
 756 1481 756 1481 718.5 1427 c 128,-1,30
 681 1373 681 1373 607 1347 c 1,31,-1
 607 1341 l 1,32,33
 694 1319 694 1319 740 1261 c 128,-1,34
 786 1203 786 1203 786 1127 c 128,-1,35
 786 1051 786 1051 754.5 1000 c 128,-1,36
 723 949 723 949 672 915 c 0,37,38
 572 848 572 848 420 848 c 0,39,40
 238 848 238 848 125 917 c 1,41,-1
 169 1062 l 1,42,43
 287 996 287 996 438 996 c 0,44,45
 557 996 557 996 596 1060 c 0,46,47
 609 1083 609 1083 609 1123.5 c 128,-1,48
 609 1164 609 1164 584.5 1193 c 128,-1,49
 560 1222 560 1222 516 1236 c 0,50,51
 435 1261 435 1261 268 1242 c 1,52,-1
 268 1398 l 1,53,-1
 318 1396 l 2,54,55
 338 1395 338 1395 359 1395 c 2,56,-1
 392 1395 l 2,57,58
 518 1395 518 1395 565 1474 c 0,59,60
 581 1500 581 1500 581 1537 c 0,18,19
EndSplineSet
EndChar

StartChar: AE
Encoding: 198 198 155
Width: 2118
GlyphClass: 2
Flags: W
LayerCount: 2
Fore
SplineSet
952 1416 m 1,0,-1
 1989 1416 l 1,1,-1
 1989 1248 l 1,2,-1
 1137 1248 l 1,3,-1
 1137 866 l 1,4,-1
 1894 866 l 1,5,-1
 1894 698 l 1,6,-1
 1137 698 l 1,7,-1
 1137 168 l 1,8,-1
 2009 168 l 1,9,-1
 2009 0 l 1,10,-1
 952 0 l 1,11,-1
 952 277 l 1,12,-1
 332 277 l 1,13,-1
 135 0 l 1,14,-1
 -65 0 l 1,15,-1
 952 1416 l 1,0,-1
952 445 m 1,16,-1
 952 1149 l 1,17,-1
 451 445 l 1,18,-1
 952 445 l 1,16,-1
EndSplineSet
Position2: "'cpsp' Capital Spacing in Latin lookup 0 subtable" dx=16 dy=0 dh=32 dv=0
EndChar

StartChar: Ccedilla
Encoding: 199 199 156
Width: 1492
GlyphClass: 2
Flags: W
LayerCount: 2
Fore
SplineSet
1329 1122 m 1,0,1
 1163 1270 1163 1270 902 1270 c 0,2,3
 665 1270 665 1270 500 1114 c 0,4,5
 333 957 333 957 333 723 c 0,6,7
 333 481 333 481 505 313 c 0,8,9
 676 146 676 146 920 146 c 0,10,11
 1097 146 1097 146 1273 236 c 0,12,13
 1325 262 1325 262 1363 293 c 1,14,-1
 1435 155 l 1,15,16
 1288 29 1288 29 1056 -8 c 0,17,18
 981 -20 981 -20 938 -20 c 2,19,-1
 888 -20 l 2,20,21
 881 -20 881 -20 874 -19 c 1,22,-1
 858 -57 l 2,23,24
 847 -82 847 -82 843 -100 c 1,25,26
 907 -116 907 -116 943.5 -154 c 128,-1,27
 980 -192 980 -192 980 -237.5 c 128,-1,28
 980 -283 980 -283 959.5 -317.5 c 128,-1,29
 939 -352 939 -352 908 -384 c 1,30,31
 846 -445 846 -445 762 -486 c 1,32,-1
 688 -411 l 1,33,-1
 728 -380 l 1,34,35
 803 -320 803 -320 803 -279 c 0,36,37
 803 -234 803 -234 686 -209 c 1,38,39
 696 -166 696 -166 713 -123 c 1,40,-1
 742 -56 l 2,41,42
 754 -30 754 -30 765 -9 c 1,43,44
 494 34 494 34 318 224 c 0,45,46
 137 420 137 420 137 693 c 0,47,48
 137 1016 137 1016 365 1228 c 0,49,50
 508 1361 508 1361 710 1411 c 0,51,52
 811 1436 811 1436 939 1436 c 128,-1,53
 1067 1436 1067 1436 1195 1392 c 128,-1,54
 1323 1348 1323 1348 1422 1270 c 1,55,-1
 1329 1122 l 1,0,1
EndSplineSet
Position2: "'cpsp' Capital Spacing in Latin lookup 0 subtable" dx=16 dy=0 dh=32 dv=0
EndChar

StartChar: Eth
Encoding: 208 208 165
Width: 1631
GlyphClass: 2
Flags: W
LayerCount: 2
Fore
SplineSet
285 706 m 1,0,-1
 27 706 l 1,1,-1
 27 860 l 1,2,-1
 285 860 l 1,3,-1
 285 1416 l 1,4,-1
 866 1416 l 2,5,6
 1191 1416 1191 1416 1390 1234 c 1,7,8
 1594 1046 1594 1046 1594 731 c 0,9,10
 1594 398 1594 398 1384 198 c 0,11,12
 1177 0 1177 0 838 0 c 2,13,-1
 285 0 l 1,14,-1
 285 706 l 1,0,-1
863 168 m 2,15,16
 1112 168 1112 168 1256 318 c 0,17,18
 1398 466 1398 466 1398 719 c 0,19,20
 1398 963 1398 963 1241 1107 c 0,21,22
 1088 1248 1088 1248 837 1248 c 2,23,-1
 470 1248 l 1,24,-1
 470 860 l 1,25,-1
 969 860 l 1,26,-1
 969 706 l 1,27,-1
 470 706 l 1,28,-1
 470 168 l 1,29,-1
 863 168 l 2,15,16
EndSplineSet
Position2: "'cpsp' Capital Spacing in Latin lookup 0 subtable" dx=16 dy=0 dh=32 dv=0
EndChar

StartChar: multiply
Encoding: 215 215 172
Width: 1336
GlyphClass: 2
Flags: W
LayerCount: 2
Fore
SplineSet
543 523 m 1,0,-1
 236 831 l 1,1,-1
 367 961 l 1,2,-1
 674 654 l 1,3,-1
 981 961 l 1,4,-1
 1099 843 l 1,5,-1
 792 536 l 1,6,-1
 1099 229 l 1,7,-1
 969 98 l 1,8,-1
 661 405 l 1,9,-1
 354 98 l 1,10,-1
 236 216 l 1,11,-1
 543 523 l 1,0,-1
EndSplineSet
EndChar

StartChar: Oslash
Encoding: 216 216 173
Width: 1822
GlyphClass: 2
Flags: W
LayerCount: 2
Fore
SplineSet
902 -20 m 0,0,1
 699 -20 699 -20 531 65 c 1,2,-1
 392 -124 l 1,3,-1
 258 -30 l 1,4,-1
 393 153 l 1,5,6
 275 249 275 249 206 386.5 c 128,-1,7
 137 524 137 524 137 693 c 0,8,9
 137 1016 137 1016 365 1228 c 0,10,11
 508 1361 508 1361 710 1411 c 0,12,13
 811 1436 811 1436 920 1436 c 0,14,15
 1113 1436 1113 1436 1281 1355 c 1,16,-1
 1415 1536 l 1,17,-1
 1549 1442 l 1,18,-1
 1421 1268 l 1,19,20
 1685 1057 1685 1057 1685 723 c 0,21,22
 1685 400 1685 400 1457 188 c 0,23,24
 1314 55 1314 55 1112 5 c 0,25,26
 1011 -20 1011 -20 902 -20 c 0,0,1
1171 1206 m 1,27,28
 1045 1270 1045 1270 914.5 1270 c 128,-1,29
 784 1270 784 1270 680.5 1228.5 c 128,-1,30
 577 1187 577 1187 500 1114 c 0,31,32
 333 957 333 957 333 723 c 0,33,34
 333 478 333 478 508 309 c 1,35,-1
 1171 1206 l 1,27,28
641 214 m 1,36,37
 771 146 771 146 904.5 146 c 128,-1,38
 1038 146 1038 146 1141.5 187.5 c 128,-1,39
 1245 229 1245 229 1322 302 c 0,40,41
 1489 460 1489 460 1489 693 c 0,42,43
 1489 819 1489 819 1440 927 c 128,-1,44
 1391 1035 1391 1035 1306 1113 c 1,45,-1
 641 214 l 1,36,37
EndSplineSet
Position2: "'cpsp' Capital Spacing in Latin lookup 0 subtable" dx=16 dy=0 dh=32 dv=0
EndChar

StartChar: Thorn
Encoding: 222 222 179
Width: 1440
GlyphClass: 2
Flags: W
LayerCount: 2
Fore
SplineSet
184 1416 m 1,0,-1
 369 1416 l 1,1,-1
 369 1221 l 1,2,-1
 695 1221 l 2,3,4
 1144 1221 1144 1221 1283 968 c 0,5,6
 1333 877 1333 877 1333 745 c 0,7,8
 1333 495 1333 495 1132 360 c 0,9,10
 952 240 952 240 667 240 c 2,11,-1
 369 240 l 1,12,-1
 369 0 l 1,13,-1
 184 0 l 1,14,-1
 184 1416 l 1,0,-1
692 408 m 2,15,16
 1001 408 1001 408 1101 581 c 0,17,18
 1137 643 1137 643 1137 733 c 0,19,20
 1137 899 1137 899 992 982 c 0,21,22
 868 1053 868 1053 666 1053 c 2,23,-1
 369 1053 l 1,24,-1
 369 408 l 1,25,-1
 692 408 l 2,15,16
EndSplineSet
Position2: "'cpsp' Capital Spacing in Latin lookup 0 subtable" dx=16 dy=0 dh=32 dv=0
EndChar

StartChar: germandbls
Encoding: 223 223 180
Width: 1212
GlyphClass: 2
Flags: W
LayerCount: 2
Fore
SplineSet
812 1355 m 1,0,1
 718 1404 718 1404 627 1404 c 128,-1,2
 536 1404 536 1404 490.5 1376 c 128,-1,3
 445 1348 445 1348 420 1300 c 0,4,5
 375 1216 375 1216 375 1050 c 2,6,-1
 375 1000 l 1,7,-1
 1093 1000 l 1,8,-1
 1093 852 l 1,9,-1
 746 423 l 1,10,11
 902 393 902 393 1003 300 c 1,12,13
 1113 197 1113 197 1113 62 c 0,14,15
 1113 -159 1113 -159 919 -312 c 0,16,17
 749 -445 749 -445 511 -485 c 1,18,-1
 454 -342 l 1,19,20
 670 -287 670 -287 778 -211 c 0,21,22
 913 -116 913 -116 913 24 c 0,23,24
 913 154 913 154 804 218 c 1,25,26
 709 275 709 275 534 275 c 1,27,-1
 534 423 l 1,28,-1
 881 852 l 1,29,-1
 375 852 l 1,30,-1
 375 0 l 1,31,-1
 184 0 l 1,32,-1
 184 1038 l 2,33,34
 184 1412 184 1412 427 1522 c 0,35,36
 511 1560 511 1560 599 1560 c 0,37,38
 744 1560 744 1560 857 1506 c 1,39,-1
 812 1355 l 1,0,1
EndSplineSet
EndChar

StartChar: ae
Encoding: 230 230 187
Width: 1809
GlyphClass: 2
Flags: W
LayerCount: 2
Fore
SplineSet
876 170 m 1,0,1
 658 -20 658 -20 428 -20 c 0,2,3
 295 -20 295 -20 202 54 c 1,4,5
 101 136 101 136 101 263 c 0,6,7
 101 529 101 529 454 618 c 0,8,9
 598 654 598 654 798 658 c 1,10,11
 792 821 792 821 638 850 c 0,12,13
 589 860 589 860 545 860 c 128,-1,14
 501 860 501 860 467 856 c 128,-1,15
 433 852 433 852 397 845 c 0,16,17
 318 830 318 830 263 808 c 1,18,-1
 210 950 l 1,19,20
 350 1020 350 1020 548 1020 c 0,21,22
 827 1020 827 1020 935 859 c 1,23,24
 1081 1020 1081 1020 1310 1020 c 0,25,26
 1491 1020 1491 1020 1598 912 c 1,27,28
 1713 798 1713 798 1713 591 c 0,29,30
 1713 526 1713 526 1692 400 c 1,31,-1
 997 400 l 1,32,33
 1019 279 1019 279 1095 209.5 c 128,-1,34
 1171 140 1171 140 1310 140 c 0,35,36
 1496 140 1496 140 1651 208 c 1,37,-1
 1683 65 l 1,38,39
 1580 5 1580 5 1390 -14 c 0,40,41
 1336 -20 1336 -20 1291 -20 c 0,42,43
 995 -20 995 -20 876 170 c 1,0,1
1531 547 m 1,44,-1
 1536 601 l 1,45,46
 1536 784 1536 784 1399 844 c 0,47,48
 1353 864 1353 864 1289 864 c 128,-1,49
 1225 864 1225 864 1171.5 839 c 128,-1,50
 1118 814 1118 814 1079 771 c 0,51,52
 999 683 999 683 989 547 c 1,53,-1
 1531 547 l 1,44,-1
332 383.5 m 128,-1,55
 291 341 291 341 291 292 c 128,-1,56
 291 243 291 243 304.5 217.5 c 128,-1,57
 318 192 318 192 340 175 c 0,58,59
 385 140 385 140 446.5 140 c 128,-1,60
 508 140 508 140 565.5 156.5 c 128,-1,61
 623 173 623 173 672 198 c 1,62,63
 765 248 765 248 817 316 c 1,64,65
 798 396 798 396 798 498 c 2,66,-1
 798 509 l 1,67,68
 560 497 560 497 466.5 461.5 c 128,-1,54
 373 426 373 426 332 383.5 c 128,-1,55
EndSplineSet
EndChar

StartChar: ccedilla
Encoding: 231 231 188
Width: 990
GlyphClass: 2
Flags: W
LayerCount: 2
Fore
SplineSet
921 214 m 1,0,-1
 956 73 l 1,1,2
 840 -14 840 -14 616 -19 c 1,3,4
 605 -47 605 -47 601 -58 c 0,5,6
 590 -83 590 -83 586 -100 c 1,7,8
 650 -116 650 -116 686.5 -154 c 128,-1,9
 723 -192 723 -192 723 -237.5 c 128,-1,10
 723 -283 723 -283 702.5 -317.5 c 128,-1,11
 682 -352 682 -352 650 -384 c 0,12,13
 589 -445 589 -445 505 -486 c 1,14,-1
 431 -411 l 1,15,-1
 472 -380 l 1,16,17
 546 -320 546 -320 546 -279 c 0,18,19
 546 -234 546 -234 429 -209 c 1,20,21
 452 -114 452 -114 506 -15 c 1,22,23
 310 9 310 9 202 146 c 0,24,25
 95 281 95 281 95 498 c 0,26,27
 95 720 95 720 240 870 c 1,28,29
 387 1020 387 1020 607 1020 c 0,30,31
 805 1020 805 1020 929 929 c 1,32,-1
 863 780 l 1,33,34
 750 864 750 864 589 864 c 0,35,36
 451 864 451 864 366 758 c 0,37,38
 285 658 285 658 285 510 c 0,39,40
 285 351 285 351 370 248 c 0,41,42
 459 140 459 140 615 140 c 128,-1,43
 771 140 771 140 921 214 c 1,0,-1
EndSplineSet
EndChar

StartChar: eth
Encoding: 240 240 197
Width: 1290
GlyphClass: 2
Flags: W
LayerCount: 2
Fore
SplineSet
413 1561 m 1,0,1
 625 1522 625 1522 790 1420 c 1,2,-1
 984 1559 l 1,3,-1
 1075 1435 l 1,4,-1
 917 1322 l 1,5,6
 1190 1064 1190 1064 1190 621 c 0,7,8
 1190 332 1190 332 1039 158 c 1,9,10
 886 -20 886 -20 626 -20 c 0,11,12
 392 -20 392 -20 246 106 c 0,13,14
 95 237 95 237 95 462 c 0,15,16
 95 684 95 684 256 829 c 0,17,18
 413 970 413 970 644 970 c 0,19,20
 835 970 835 970 970 869 c 1,21,22
 913 1083 913 1083 764 1212 c 1,23,-1
 548 1057 l 1,24,-1
 457 1181 l 1,25,-1
 628 1304 l 1,26,27
 509 1365 509 1365 348 1396 c 1,28,-1
 413 1561 l 1,0,1
1000 610 m 1,29,-1
 999 654 l 1,30,31
 823 810 823 810 626 810 c 0,32,33
 477 810 477 810 380 717 c 0,34,35
 285 625 285 625 285 474 c 0,36,37
 285 318 285 318 385 228 c 0,38,39
 482 140 482 140 644 140 c 0,40,41
 813 140 813 140 908 268 c 0,42,43
 1000 393 1000 393 1000 610 c 1,29,-1
EndSplineSet
EndChar

StartChar: divide
Encoding: 247 247 204
Width: 1336
GlyphClass: 2
Flags: W
LayerCount: 2
Fore
SplineSet
758 799 m 128,-1,1
 724 765 724 765 668 765 c 128,-1,2
 612 765 612 765 578 799 c 128,-1,3
 544 833 544 833 544 889 c 128,-1,4
 544 945 544 945 578 978.5 c 128,-1,5
 612 1012 612 1012 668 1012 c 128,-1,6
 724 1012 724 1012 758 978.5 c 128,-1,7
 792 945 792 945 792 889 c 128,-1,0
 792 833 792 833 758 799 c 128,-1,1
207 613 m 1,8,-1
 1129 613 l 1,9,-1
 1129 445 l 1,10,-1
 207 445 l 1,11,-1
 207 613 l 1,8,-1
578 81 m 128,-1,13
 544 115 544 115 544 171 c 128,-1,14
 544 227 544 227 578 260.5 c 128,-1,15
 612 294 612 294 668 294 c 128,-1,16
 724 294 724 294 758 260.5 c 128,-1,17
 792 227 792 227 792 171 c 128,-1,18
 792 115 792 115 758 81 c 128,-1,19
 724 47 724 47 668 47 c 128,-1,12
 612 47 612 47 578 81 c 128,-1,13
EndSplineSet
EndChar

StartChar: oslash
Encoding: 248 248 205
Width: 1290
GlyphClass: 2
Flags: W
LayerCount: 2
Fore
SplineSet
625 -20 m 0,0,1
 501 -20 501 -20 387 31 c 1,2,-1
 267 -132 l 1,3,-1
 147 -45 l 1,4,-1
 262 111 l 1,5,6
 95 257 95 257 95 492 c 0,7,8
 95 716 95 716 262 870 c 0,9,10
 425 1020 425 1020 654 1020 c 0,11,12
 780 1020 780 1020 893 972 c 1,13,-1
 1000 1117 l 1,14,-1
 1120 1030 l 1,15,-1
 1020 894 l 1,16,17
 1195 745 1195 745 1195 504 c 0,18,19
 1195 281 1195 281 1028 129 c 1,20,21
 866 -20 866 -20 625 -20 c 0,0,1
789 830 m 1,22,23
 714 860 714 860 637.5 860 c 128,-1,24
 561 860 561 860 497 832.5 c 128,-1,25
 433 805 433 805 386 757 c 0,26,27
 285 655 285 655 285 504 c 0,28,29
 285 360 285 360 372 261 c 1,30,-1
 789 830 l 1,22,23
491 173 m 1,31,32
 567 140 567 140 648 140 c 128,-1,33
 729 140 729 140 793 167 c 128,-1,34
 857 194 857 194 904 242 c 1,35,36
 1005 342 1005 342 1005 493 c 0,37,38
 1005 643 1005 643 910 744 c 1,39,-1
 491 173 l 1,31,32
EndSplineSet
EndChar

StartChar: thorn
Encoding: 254 254 211
Width: 1269
GlyphClass: 2
Flags: W
LayerCount: 2
Fore
SplineSet
602 -20 m 0,0,1
 480 -20 480 -20 374 2 c 1,2,-1
 374 -467 l 1,3,-1
 184 -467 l 1,4,-1
 184 1562 l 1,5,-1
 374 1562 l 1,6,-1
 374 917 l 1,7,8
 513 1020 513 1020 698 1020 c 0,9,10
 914 1020 914 1020 1045 884 c 0,11,12
 1174 749 1174 749 1174 530 c 0,13,14
 1174 285 1174 285 1010 131 c 0,15,16
 850 -20 850 -20 602 -20 c 0,0,1
374 173 m 1,17,18
 515 140 515 140 610 140 c 128,-1,19
 705 140 705 140 773 166.5 c 128,-1,20
 841 193 841 193 888 242 c 0,21,22
 984 342 984 342 984 518 c 0,23,24
 984 666 984 666 906 760 c 0,25,26
 823 860 823 860 685 860 c 0,27,28
 527 860 527 860 426 782 c 1,29,30
 394 756 394 756 374 723 c 1,31,-1
 374 173 l 1,17,18
EndSplineSet
EndChar

StartChar: hbar
Encoding: 295 295 213
Width: 1337
GlyphClass: 2
Flags: W
LayerCount: 2
Fore
SplineSet
374 913 m 1,0,1
 522 1020 522 1020 718 1020 c 0,2,3
 1174 1020 1174 1020 1174 519 c 2,4,-1
 1174 0 l 1,5,-1
 985 0 l 1,6,-1
 984 507 l 2,7,8
 984 680 984 680 924 764 c 1,9,10
 857 860 857 860 705 860 c 0,11,12
 542 860 542 860 432 780 c 0,13,14
 396 755 396 755 374 722 c 1,15,-1
 374 0 l 1,16,-1
 184 0 l 1,17,-1
 184 1205 l 1,18,-1
 5 1205 l 1,19,-1
 5 1359 l 1,20,-1
 184 1359 l 1,21,-1
 184 1562 l 1,22,-1
 374 1561 l 1,23,-1
 374 1359 l 1,24,-1
 655 1359 l 1,25,-1
 655 1205 l 1,26,-1
 374 1205 l 1,27,-1
 374 913 l 1,0,1
EndSplineSet
EndChar

StartChar: dotlessi
Encoding: 305 305 216
Width: 558
GlyphClass: 2
Flags: W
LayerCount: 2
Fore
SplineSet
184 1000 m 1,0,-1
 374 1000 l 1,1,-1
 374 0 l 1,2,-1
 184 0 l 1,3,-1
 184 1000 l 1,0,-1
EndSplineSet
EndChar

StartChar: IJ
Encoding: 306 306 217
Width: 1428
GlyphClass: 2
Flags: W
LayerCount: 2
Fore
SplineSet
776 299 m 1,0,1
 795 227 795 227 830 186.5 c 128,-1,2
 865 146 865 146 933.5 146 c 128,-1,3
 1002 146 1002 146 1030.5 198 c 128,-1,4
 1059 250 1059 250 1059 354 c 2,5,-1
 1059 1416 l 1,6,-1
 1244 1416 l 1,7,-1
 1244 384 l 2,8,9
 1244 178 1244 178 1156 79 c 128,-1,10
 1068 -20 1068 -20 905 -20 c 0,11,12
 798 -20 798 -20 724 54 c 0,13,14
 652 126 652 126 632 254 c 1,15,-1
 776 299 l 1,0,1
184 1416 m 1,16,-1
 369 1416 l 1,17,-1
 369 0 l 1,18,-1
 184 0 l 1,19,-1
 184 1416 l 1,16,-1
EndSplineSet
Position2: "'cpsp' Capital Spacing in Latin lookup 0 subtable" dx=16 dy=0 dh=32 dv=0
EndChar

StartChar: kgreenlandic
Encoding: 312 312 222
Width: 1112
GlyphClass: 2
Flags: W
LayerCount: 2
Fore
SplineSet
184 1000 m 1,0,-1
 374 1000 l 1,1,-1
 374 560 l 1,2,-1
 823 1000 l 1,3,-1
 1045 1000 l 1,4,-1
 575 540 l 1,5,-1
 855 238 l 1,6,7
 944 144 944 144 1067 135 c 1,8,-1
 1038 0 l 1,9,10
 887 -21 887 -21 792 56 c 0,11,12
 763 80 763 80 735 111 c 2,13,-1
 374 501 l 1,14,-1
 374 0 l 1,15,-1
 184 0 l 1,16,-1
 184 1000 l 1,0,-1
EndSplineSet
EndChar

StartChar: Lslash
Encoding: 321 321 224
Width: 1328
GlyphClass: 2
Flags: W
LayerCount: 2
Fore
SplineSet
304 504 m 1,0,-1
 85 406 l 1,1,-1
 23 547 l 1,2,-1
 304 672 l 1,3,-1
 304 1416 l 1,4,-1
 489 1416 l 1,5,-1
 489 755 l 1,6,-1
 957 964 l 1,7,-1
 1019 823 l 1,8,-1
 489 586 l 1,9,-1
 489 168 l 1,10,-1
 1261 168 l 1,11,-1
 1261 0 l 1,12,-1
 304 0 l 1,13,-1
 304 504 l 1,0,-1
EndSplineSet
Position2: "'cpsp' Capital Spacing in Latin lookup 0 subtable" dx=16 dy=0 dh=32 dv=0
EndChar

StartChar: lslash
Encoding: 322 322 225
Width: 715
GlyphClass: 2
Flags: W
LayerCount: 2
Fore
SplineSet
254 610 m 1,0,-1
 124 552 l 1,1,-1
 61 693 l 1,2,-1
 254 779 l 1,3,-1
 254 1561 l 1,4,-1
 444 1561 l 1,5,-1
 444 863 l 1,6,-1
 621 942 l 1,7,-1
 684 801 l 1,8,-1
 444 694 l 1,9,-1
 444 342 l 2,10,11
 444 240 444 240 458 206 c 0,12,13
 486 141 486 141 554 123 c 1,14,-1
 526 0 l 1,15,16
 371 -20 371 -20 305 82 c 0,17,18
 254 162 254 162 254 328 c 2,19,-1
 254 610 l 1,0,-1
EndSplineSet
EndChar

StartChar: OE
Encoding: 338 338 228
Width: 2252
GlyphClass: 2
Flags: W
LayerCount: 2
Fore
SplineSet
197.5 405 m 128,-1,1
 137 536 137 536 137 669 c 128,-1,2
 137 802 137 802 164.5 899.5 c 128,-1,3
 192 997 192 997 243 1079.5 c 128,-1,4
 294 1162 294 1162 365 1228 c 128,-1,5
 436 1294 436 1294 523 1340 c 0,6,7
 705 1436 705 1436 920 1436 c 0,8,9
 1013 1436 1013 1436 1104 1416 c 1,10,-1
 2123 1416 l 1,11,-1
 2123 1248 l 1,12,-1
 1271 1248 l 1,13,-1
 1271 866 l 1,14,-1
 2028 866 l 1,15,-1
 2028 698 l 1,16,-1
 1271 698 l 1,17,-1
 1271 168 l 1,18,-1
 2143 168 l 1,19,-1
 2143 0 l 1,20,-1
 1090 0 l 1,21,22
 998 -20 998 -20 871.5 -20 c 128,-1,23
 745 -20 745 -20 606 32.5 c 128,-1,24
 467 85 467 85 362.5 179.5 c 128,-1,0
 258 274 258 274 197.5 405 c 128,-1,1
377.5 941 m 128,-1,26
 333 841 333 841 333 721 c 128,-1,27
 333 601 333 601 379 496 c 128,-1,28
 425 391 425 391 505 313 c 0,29,30
 676 146 676 146 920 146 c 0,31,32
 1008 146 1008 146 1086 168 c 1,33,-1
 1086 1241 l 1,34,35
 997 1270 997 1270 890.5 1270 c 128,-1,36
 784 1270 784 1270 680.5 1228.5 c 128,-1,37
 577 1187 577 1187 499.5 1114 c 128,-1,25
 422 1041 422 1041 377.5 941 c 128,-1,26
EndSplineSet
Position2: "'cpsp' Capital Spacing in Latin lookup 0 subtable" dx=16 dy=0 dh=32 dv=0
EndChar

StartChar: oe
Encoding: 339 339 229
Width: 2017
GlyphClass: 2
Flags: W
LayerCount: 2
Fore
SplineSet
1499 -20 m 0,0,1
 1195 -20 1195 -20 1078 180 c 1,2,3
 960 37 960 37 765 -6 c 0,4,5
 702 -20 702 -20 611.5 -20 c 128,-1,6
 521 -20 521 -20 422 17 c 128,-1,7
 323 54 323 54 250 122 c 0,8,9
 95 266 95 266 95 492 c 0,10,11
 95 716 95 716 262 870 c 0,12,13
 425 1020 425 1020 654 1020 c 0,14,15
 866 1020 866 1020 1016 896 c 0,16,17
 1064 857 1064 857 1100 807 c 1,18,19
 1169 905 1169 905 1276.5 962.5 c 128,-1,20
 1384 1020 1384 1020 1494.5 1020 c 128,-1,21
 1605 1020 1605 1020 1679 993 c 128,-1,22
 1753 966 1753 966 1806 912 c 1,23,24
 1921 798 1921 798 1921 591 c 0,25,26
 1921 520 1921 520 1901 400 c 1,27,-1
 1205 400 l 1,28,29
 1227 279 1227 279 1303 209.5 c 128,-1,30
 1379 140 1379 140 1518 140 c 0,31,32
 1704 140 1704 140 1859 208 c 1,33,-1
 1891 65 l 1,34,35
 1788 5 1788 5 1598 -14 c 0,36,37
 1544 -20 1544 -20 1499 -20 c 0,0,1
1740 547 m 1,38,-1
 1744 601 l 1,39,40
 1744 784 1744 784 1607 844 c 0,41,42
 1561 864 1561 864 1497 864 c 128,-1,43
 1433 864 1433 864 1379.5 839 c 128,-1,44
 1326 814 1326 814 1287 771 c 0,45,46
 1207 683 1207 683 1197 547 c 1,47,-1
 1740 547 l 1,38,-1
285 502 m 0,48,49
 285 424 285 424 313 357.5 c 128,-1,50
 341 291 341 291 390 242 c 0,51,52
 494 140 494 140 654 140 c 0,53,54
 803 140 803 140 904 242 c 1,55,56
 1005 342 1005 342 1005 493 c 0,57,58
 1005 651 1005 651 900 756 c 0,59,60
 796 860 796 860 636 860 c 0,61,62
 487 860 487 860 386 757 c 0,63,64
 285 655 285 655 285 502 c 0,48,49
EndSplineSet
EndChar

StartChar: dotlessj
Encoding: 567 567 235
Width: 558
GlyphClass: 2
Flags: W
LayerCount: 2
Fore
SplineSet
184 1000 m 1,0,-1
 374 1000 l 1,1,-1
 374 -65 l 2,2,3
 374 -307 374 -307 244 -417 c 0,4,5
 199 -455 199 -455 135 -485 c 1,6,-1
 55 -356 l 1,7,8
 126 -313 126 -313 154 -257 c 0,9,10
 184 -198 184 -198 184 -85 c 2,11,-1
 184 1000 l 1,0,-1
EndSplineSet
EndChar

StartChar: circumflex
Encoding: 710 710 236
Width: 598
GlyphClass: 2
Flags: W
LayerCount: 2
Fore
SplineSet
-11 1232 m 1,0,-1
 299 1526 l 1,1,-1
 607 1234 l 1,2,-1
 514 1145 l 1,3,-1
 293 1330 l 1,4,-1
 80 1145 l 1,5,-1
 -11 1232 l 1,0,-1
EndSplineSet
EndChar

StartChar: caron
Encoding: 711 711 237
Width: 598
GlyphClass: 2
Flags: W
LayerCount: 2
Fore
SplineSet
-11 1437 m 1,0,-1
 82 1526 l 1,1,-1
 303 1341 l 1,2,-1
 516 1526 l 1,3,-1
 607 1439 l 1,4,-1
 297 1145 l 1,5,-1
 -11 1437 l 1,0,-1
EndSplineSet
EndChar

StartChar: ring
Encoding: 730 730 238
Width: 938
GlyphClass: 2
Flags: W
LayerCount: 2
Fore
SplineSet
551 1158.5 m 128,-1,1
 508 1143 508 1143 460.5 1143 c 128,-1,2
 413 1143 413 1143 372.5 1156.5 c 128,-1,3
 332 1170 332 1170 303 1196 c 0,4,5
 242 1251 242 1251 242 1346 c 0,6,7
 242 1437 242 1437 312 1500 c 0,8,9
 381 1561 381 1561 476 1561 c 0,10,11
 629 1561 629 1561 680 1442 c 0,12,13
 697 1404 697 1404 697 1356 c 128,-1,14
 697 1308 697 1308 677.5 1269.5 c 128,-1,15
 658 1231 658 1231 626 1202.5 c 128,-1,0
 594 1174 594 1174 551 1158.5 c 128,-1,1
390.5 1273 m 128,-1,17
 423 1244 423 1244 472 1244 c 128,-1,18
 521 1244 521 1244 551 1272.5 c 128,-1,19
 581 1301 581 1301 581 1350 c 128,-1,20
 581 1399 581 1399 548 1429.5 c 128,-1,21
 515 1460 515 1460 466 1460 c 128,-1,22
 417 1460 417 1460 387.5 1430 c 128,-1,23
 358 1400 358 1400 358 1351 c 128,-1,16
 358 1302 358 1302 390.5 1273 c 128,-1,17
EndSplineSet
EndChar

StartChar: tilde
Encoding: 732 732 239
Width: 598
GlyphClass: 2
Flags: W
LayerCount: 2
Fore
SplineSet
167 1310 m 0,0,1
 93 1310 93 1310 30 1199 c 1,2,-1
 -67 1270 l 1,3,4
 -5 1410 -5 1410 128 1446 c 0,5,6
 158 1454 158 1454 195.5 1454 c 128,-1,7
 233 1454 233 1454 267.5 1436.5 c 128,-1,8
 302 1419 302 1419 331 1398 c 2,9,10
 331 1398 331 1398 385 1360 c 0,11,12
 410 1343 410 1343 433 1343 c 0,13,14
 506 1343 506 1343 570 1454 c 1,15,-1
 666 1395 l 1,16,17
 600 1245 600 1245 472 1208 c 0,18,19
 442 1199 442 1199 404 1199 c 128,-1,20
 366 1199 366 1199 332 1216.5 c 128,-1,21
 298 1234 298 1234 269 1254 c 2,22,-1
 214 1292 l 2,23,24
 189 1310 189 1310 167 1310 c 0,0,1
EndSplineSet
EndChar

StartChar: endash
Encoding: 8211 8211 240
Width: 1556
GlyphClass: 2
Flags: W
LayerCount: 2
Fore
SplineSet
267 669 m 1,0,-1
 1289 669 l 1,1,-1
 1289 515 l 1,2,-1
 267 515 l 1,3,-1
 267 669 l 1,0,-1
EndSplineSet
EndChar

StartChar: emdash
Encoding: 8212 8212 241
Width: 1636
GlyphClass: 2
Flags: W
LayerCount: 2
Fore
SplineSet
107 669 m 1,0,-1
 1529 669 l 1,1,-1
 1529 515 l 1,2,-1
 107 515 l 1,3,-1
 107 669 l 1,0,-1
EndSplineSet
EndChar

StartChar: quoteleft
Encoding: 8216 8216 242
Width: 527
GlyphClass: 2
Flags: W
LayerCount: 2
Fore
SplineSet
316 1250 m 1,0,1
 368 1216 368 1216 368 1160 c 0,2,3
 368 1083 368 1083 292 1056 c 0,4,5
 269 1048 269 1048 243 1048 c 128,-1,6
 217 1048 217 1048 194 1058 c 128,-1,7
 171 1068 171 1068 154 1085 c 0,8,9
 120 1121 120 1121 120 1164 c 128,-1,10
 120 1207 120 1207 130.5 1244.5 c 128,-1,11
 141 1282 141 1282 158 1320 c 128,-1,12
 175 1358 175 1358 196.5 1395 c 128,-1,13
 218 1432 218 1432 241 1464 c 0,14,15
 291 1532 291 1532 324 1561 c 1,16,-1
 415 1510 l 1,17,18
 365 1445 365 1445 328 1316 c 0,19,20
 318 1279 318 1279 316 1250 c 1,0,1
EndSplineSet
EndChar

StartChar: quoteright
Encoding: 8217 8217 243
Width: 527
GlyphClass: 2
Flags: W
LayerCount: 2
Fore
SplineSet
211 1359 m 1,0,1
 159 1393 159 1393 159 1449 c 0,2,3
 159 1526 159 1526 236 1553 c 0,4,5
 258 1561 258 1561 284 1561 c 128,-1,6
 310 1561 310 1561 333 1551 c 128,-1,7
 356 1541 356 1541 372 1524 c 0,8,9
 407 1488 407 1488 407 1444.5 c 128,-1,10
 407 1401 407 1401 396.5 1364 c 128,-1,11
 386 1327 386 1327 369 1289 c 128,-1,12
 352 1251 352 1251 330.5 1214 c 128,-1,13
 309 1177 309 1177 286 1146 c 0,14,15
 236 1077 236 1077 203 1048 c 1,16,-1
 112 1099 l 1,17,18
 165 1172 165 1172 198 1292 c 0,19,20
 209 1330 209 1330 211 1359 c 1,0,1
EndSplineSet
EndChar

StartChar: quotesinglbase
Encoding: 8218 8218 244
Width: 527
GlyphClass: 2
Flags: W
LayerCount: 2
Fore
SplineSet
211 32 m 1,0,1
 159 66 159 66 159 122 c 0,2,3
 159 199 159 199 236 226 c 0,4,5
 258 234 258 234 284 234 c 128,-1,6
 310 234 310 234 333 224 c 128,-1,7
 356 214 356 214 372 197 c 0,8,9
 407 161 407 161 407 118 c 128,-1,10
 407 75 407 75 396.5 37.5 c 128,-1,11
 386 0 386 0 369 -38 c 128,-1,12
 352 -76 352 -76 330.5 -113 c 128,-1,13
 309 -150 309 -150 286 -182 c 0,14,15
 236 -250 236 -250 203 -279 c 1,16,-1
 112 -228 l 1,17,18
 165 -155 165 -155 198 -34 c 0,19,20
 209 3 209 3 211 32 c 1,0,1
EndSplineSet
EndChar

StartChar: quotedblleft
Encoding: 8220 8220 245
Width: 881
GlyphClass: 2
Flags: W
LayerCount: 2
Fore
SplineSet
670 1125 m 1,0,1
 722 1091 722 1091 722 1035 c 0,2,3
 722 958 722 958 646 931 c 0,4,5
 623 923 623 923 597 923 c 128,-1,6
 571 923 571 923 548 933 c 128,-1,7
 525 943 525 943 508 960 c 0,8,9
 474 996 474 996 474 1039.5 c 128,-1,10
 474 1083 474 1083 484.5 1120 c 128,-1,11
 495 1157 495 1157 512 1195 c 128,-1,12
 529 1233 529 1233 550.5 1269.5 c 128,-1,13
 572 1306 572 1306 595 1338 c 0,14,15
 644 1406 644 1406 678 1436 c 1,16,-1
 769 1385 l 1,17,18
 718 1320 718 1320 682 1192 c 0,19,20
 672 1154 672 1154 670 1125 c 1,0,1
316 1125 m 1,21,22
 368 1091 368 1091 368 1035 c 0,23,24
 368 958 368 958 292 931 c 0,25,26
 269 923 269 923 243 923 c 128,-1,27
 217 923 217 923 194 933 c 128,-1,28
 171 943 171 943 154 960 c 0,29,30
 120 996 120 996 120 1039.5 c 128,-1,31
 120 1083 120 1083 130.5 1120 c 128,-1,32
 141 1157 141 1157 158 1195 c 128,-1,33
 175 1233 175 1233 196.5 1269.5 c 128,-1,34
 218 1306 218 1306 241 1338 c 0,35,36
 290 1406 290 1406 324 1436 c 1,37,-1
 415 1385 l 1,38,39
 365 1320 365 1320 328 1192 c 0,40,41
 318 1154 318 1154 316 1125 c 1,21,22
EndSplineSet
EndChar

StartChar: quotedblright
Encoding: 8221 8221 246
Width: 881
GlyphClass: 2
Flags: W
LayerCount: 2
Fore
SplineSet
565 1234 m 1,0,1
 513 1268 513 1268 513 1324 c 0,2,3
 513 1401 513 1401 590 1428 c 0,4,5
 612 1436 612 1436 638 1436 c 128,-1,6
 664 1436 664 1436 687 1426 c 128,-1,7
 710 1416 710 1416 726 1399 c 0,8,9
 761 1363 761 1363 761 1319.5 c 128,-1,10
 761 1276 761 1276 750.5 1239 c 128,-1,11
 740 1202 740 1202 723 1164 c 128,-1,12
 706 1126 706 1126 684.5 1089.5 c 128,-1,13
 663 1053 663 1053 640 1021 c 0,14,15
 591 953 591 953 557 923 c 1,16,-1
 466 974 l 1,17,18
 519 1047 519 1047 552 1168 c 0,19,20
 563 1205 563 1205 565 1234 c 1,0,1
211 1234 m 1,21,22
 159 1268 159 1268 159 1324 c 0,23,24
 159 1401 159 1401 236 1428 c 0,25,26
 258 1436 258 1436 284 1436 c 128,-1,27
 310 1436 310 1436 333 1426 c 128,-1,28
 356 1416 356 1416 372 1399 c 0,29,30
 407 1363 407 1363 407 1319.5 c 128,-1,31
 407 1276 407 1276 396.5 1239 c 128,-1,32
 386 1202 386 1202 369 1164 c 128,-1,33
 352 1126 352 1126 330.5 1089.5 c 128,-1,34
 309 1053 309 1053 286 1021 c 0,35,36
 237 953 237 953 203 923 c 1,37,-1
 112 974 l 1,38,39
 165 1047 165 1047 198 1168 c 0,40,41
 209 1205 209 1205 211 1234 c 1,21,22
EndSplineSet
EndChar

StartChar: quotedblbase
Encoding: 8222 8222 247
Width: 881
GlyphClass: 2
Flags: W
LayerCount: 2
Fore
SplineSet
565 32 m 1,0,1
 513 66 513 66 513 122 c 0,2,3
 513 199 513 199 590 226 c 0,4,5
 612 234 612 234 638 234 c 128,-1,6
 664 234 664 234 687 224 c 128,-1,7
 710 214 710 214 726 197 c 0,8,9
 761 161 761 161 761 118 c 128,-1,10
 761 75 761 75 750.5 37.5 c 128,-1,11
 740 0 740 0 723 -38 c 128,-1,12
 706 -76 706 -76 684.5 -113 c 128,-1,13
 663 -150 663 -150 640 -182 c 0,14,15
 590 -250 590 -250 557 -279 c 1,16,-1
 466 -228 l 1,17,18
 519 -155 519 -155 552 -34 c 0,19,20
 563 3 563 3 565 32 c 1,0,1
211 32 m 1,21,22
 159 66 159 66 159 122 c 0,23,24
 159 199 159 199 236 226 c 0,25,26
 258 234 258 234 284 234 c 128,-1,27
 310 234 310 234 333 224 c 128,-1,28
 356 214 356 214 372 197 c 0,29,30
 407 161 407 161 407 118 c 128,-1,31
 407 75 407 75 396.5 37.5 c 128,-1,32
 386 0 386 0 369 -38 c 128,-1,33
 352 -76 352 -76 330.5 -113 c 128,-1,34
 309 -150 309 -150 286 -182 c 0,35,36
 236 -250 236 -250 203 -279 c 1,37,-1
 112 -228 l 1,38,39
 165 -155 165 -155 198 -34 c 0,40,41
 209 3 209 3 211 32 c 1,21,22
EndSplineSet
EndChar

StartChar: bullet
Encoding: 8226 8226 248
Width: 622
GlyphClass: 2
Flags: W
LayerCount: 2
Fore
SplineSet
394.5 382 m 128,-1,1
 357 367 357 367 311.5 367 c 128,-1,2
 266 367 266 367 228 382 c 128,-1,3
 190 397 190 397 163 424 c 0,4,5
 107 478 107 478 107 570 c 256,6,7
 107 662 107 662 163 718 c 128,-1,8
 219 774 219 774 312 774 c 0,9,10
 452 774 452 774 500 654 c 0,11,12
 515 616 515 616 515 570.5 c 128,-1,13
 515 525 515 525 500 487.5 c 128,-1,14
 485 450 485 450 458.5 423.5 c 128,-1,0
 432 397 432 397 394.5 382 c 128,-1,1
EndSplineSet
EndChar

StartChar: guilsinglleft
Encoding: 8249 8249 249
Width: 702
GlyphClass: 2
Flags: W
LayerCount: 2
Fore
SplineSet
107 531 m 1,0,-1
 532 944 l 1,1,-1
 635 846 l 1,2,-1
 337 518 l 1,3,-1
 629 204 l 1,4,-1
 530 98 l 1,5,-1
 107 471 l 1,6,-1
 107 531 l 1,0,-1
EndSplineSet
EndChar

StartChar: Euro
Encoding: 8364 8364 251
Width: 1697
GlyphClass: 2
Flags: W
LayerCount: 2
Fore
SplineSet
482 795 m 1,0,1
 478 759 478 759 478 706 c 128,-1,2
 478 653 478 653 489 598 c 1,3,-1
 1267 598 l 1,4,-1
 1247 444 l 1,5,-1
 538 444 l 1,6,7
 639 232 639 232 859 168 c 0,8,9
 932 146 932 146 1003 146 c 128,-1,10
 1074 146 1074 146 1136.5 157.5 c 128,-1,11
 1199 169 1199 169 1258 189 c 0,12,13
 1383 232 1383 232 1458 293 c 1,14,-1
 1530 155 l 1,15,16
 1383 29 1383 29 1151 -8 c 0,17,18
 1076 -20 1076 -20 975 -20 c 128,-1,19
 874 -20 874 -20 766 13 c 128,-1,20
 658 46 658 46 570 106 c 1,21,22
 392 230 392 230 321 444 c 1,23,-1
 65 444 l 1,24,-1
 85 598 l 1,25,-1
 287 598 l 1,26,27
 282 656 282 656 282 700.5 c 128,-1,28
 282 745 282 745 288 795 c 1,29,-1
 105 795 l 1,30,-1
 125 949 l 1,31,-1
 320 949 l 1,32,33
 390 1172 390 1172 573 1303 c 0,34,35
 758 1436 758 1436 1015 1436 c 0,36,37
 1306 1436 1306 1436 1517 1270 c 1,38,-1
 1424 1122 l 1,39,40
 1258 1270 1258 1270 997 1270 c 256,41,42
 736 1270 736 1270 592 1080 c 1,43,44
 546 1021 546 1021 518 949 c 1,45,-1
 1307 949 l 1,46,-1
 1287 795 l 1,47,-1
 482 795 l 1,0,1
EndSplineSet
EndChar

StartChar: commaaccent
Encoding: 65539 -1 252
Width: 598
GlyphClass: 2
Flags: W
LayerCount: 2
Fore
SplineSet
169 -445 m 1,0,1
 270 -259 270 -259 238 -118 c 1,2,-1
 400 -99 l 1,3,4
 434 -247 434 -247 322 -412 c 0,5,6
 293 -455 293 -455 265 -486 c 1,7,-1
 169 -445 l 1,0,1
EndSplineSet
EndChar

StartChar: grave.cap
Encoding: 65540 -1 253
Width: 598
GlyphClass: 2
Flags: W
LayerCount: 2
Fore
SplineSet
20 1723 m 1,0,-1
 104 1862 l 1,1,-1
 589 1651 l 1,2,-1
 523 1542 l 1,3,-1
 20 1723 l 1,0,-1
EndSplineSet
EndChar

StartChar: acute.cap
Encoding: 65541 -1 254
Width: 598
GlyphClass: 2
Flags: W
LayerCount: 2
Fore
SplineSet
51 1646 m 1,0,-1
 536 1876 l 1,1,-1
 625 1739 l 1,2,-1
 123 1538 l 1,3,-1
 51 1646 l 1,0,-1
EndSplineSet
EndChar

StartChar: circumflex.cap
Encoding: 65542 -1 255
Width: 598
GlyphClass: 2
Flags: W
LayerCount: 2
Fore
SplineSet
-91 1622 m 1,0,-1
 299 1886 l 1,1,-1
 697 1625 l 1,2,-1
 594 1536 l 1,3,-1
 293 1702 l 1,4,-1
 0 1535 l 1,5,-1
 -91 1622 l 1,0,-1
EndSplineSet
EndChar

StartChar: dieresis.cap
Encoding: 65543 -1 256
Width: 598
GlyphClass: 2
Flags: W
LayerCount: 2
Fore
SplineSet
545 1572 m 256,0,1
 500 1572 500 1572 469.5 1602.5 c 128,-1,2
 439 1633 439 1633 439 1678 c 256,3,4
 439 1723 439 1723 469.5 1753.5 c 128,-1,5
 500 1784 500 1784 545 1784 c 256,6,7
 590 1784 590 1784 620.5 1753.5 c 128,-1,8
 651 1723 651 1723 651 1678 c 256,9,10
 651 1633 651 1633 620.5 1602.5 c 128,-1,11
 590 1572 590 1572 545 1572 c 256,0,1
53 1572 m 256,12,13
 8 1572 8 1572 -22.5 1602.5 c 128,-1,14
 -53 1633 -53 1633 -53 1678 c 256,15,16
 -53 1723 -53 1723 -22.5 1753.5 c 128,-1,17
 8 1784 8 1784 53 1784 c 256,18,19
 98 1784 98 1784 128.5 1753.5 c 128,-1,20
 159 1723 159 1723 159 1678 c 256,21,22
 159 1633 159 1633 128.5 1602.5 c 128,-1,23
 98 1572 98 1572 53 1572 c 256,12,13
EndSplineSet
EndChar

StartChar: tilde.cap
Encoding: 65544 -1 257
Width: 598
GlyphClass: 2
Flags: W
LayerCount: 2
Fore
SplineSet
453 1720 m 0,0,1
 526 1720 526 1720 582 1808 c 1,2,-1
 680 1746 l 1,3,4
 615 1613 615 1613 486 1580 c 0,5,6
 456 1573 456 1573 418 1573 c 128,-1,7
 380 1573 380 1573 340 1586.5 c 128,-1,8
 300 1600 300 1600 263 1616 c 2,9,-1
 194 1647 l 2,10,11
 163 1661 163 1661 137 1661 c 0,12,13
 90 1661 90 1661 41 1617 c 0,14,15
 19 1598 19 1598 2 1573 c 1,16,-1
 -103 1644 l 1,17,18
 -49 1733 -49 1733 52 1782 c 1,19,20
 103 1808 103 1808 158 1808 c 128,-1,21
 213 1808 213 1808 253.5 1794 c 128,-1,22
 294 1780 294 1780 331 1764 c 2,23,-1
 399 1734 l 2,24,25
 430 1720 430 1720 453 1720 c 0,0,1
EndSplineSet
EndChar

StartChar: caron.cap
Encoding: 65545 -1 258
Width: 598
GlyphClass: 2
Flags: W
LayerCount: 2
Fore
SplineSet
-91 1796 m 1,0,-1
 12 1885 l 1,1,-1
 313 1721 l 1,2,-1
 606 1886 l 1,3,-1
 697 1799 l 1,4,-1
 307 1535 l 1,5,-1
 -91 1796 l 1,0,-1
EndSplineSet
EndChar

StartChar: ring.cap
Encoding: 65546 -1 259
Width: 938
GlyphClass: 2
Flags: W
LayerCount: 2
Fore
SplineSet
553.5 1528 m 128,-1,1
 510 1514 510 1514 461.5 1514 c 128,-1,2
 413 1514 413 1514 372 1526.5 c 128,-1,3
 331 1539 331 1539 301 1564 c 0,4,5
 238 1615 238 1615 238 1711 c 0,6,7
 238 1804 238 1804 309 1864 c 1,8,9
 377 1920 377 1920 476 1920 c 0,10,11
 632 1920 632 1920 684 1806 c 0,12,13
 701 1769 701 1769 701 1720.5 c 128,-1,14
 701 1672 701 1672 681.5 1634 c 128,-1,15
 662 1596 662 1596 629.5 1569 c 128,-1,0
 597 1542 597 1542 553.5 1528 c 128,-1,1
390 1642.5 m 128,-1,17
 424 1617 424 1617 472.5 1617 c 128,-1,18
 521 1617 521 1617 552 1641.5 c 128,-1,19
 583 1666 583 1666 583 1714.5 c 128,-1,20
 583 1763 583 1763 548.5 1790 c 128,-1,21
 514 1817 514 1817 465.5 1817 c 128,-1,22
 417 1817 417 1817 386.5 1791 c 128,-1,23
 356 1765 356 1765 356 1716.5 c 128,-1,16
 356 1668 356 1668 390 1642.5 c 128,-1,17
EndSplineSet
EndChar
